<?xml version="1.0" encoding="UTF-8"?><svg id="a" xmlns="http://www.w3.org/2000/svg" viewBox="0 0 49.1 50"><path d="M18.8,25.49c-1.71,0-3.29.9-4.15,2.37-.86,1.47-.86,3.27,0,4.74.86,1.47,2.44,2.37,4.15,2.37s3.29-.9,4.15-2.37c.86-1.47.86-3.27,0-4.74-.86-1.47-2.44-2.37-4.15-2.37Z" style="fill:#fffcd9;"/><path d="M46.97,0H2.13C.95,0,0,.95,0,2.13v45.75c0,1.18.95,2.13,2.13,2.13h44.84c1.18,0,2.13-.95,2.13-2.13V2.13c0-1.18-.95-2.13-2.13-2.13ZM14.97,12.21c0-1.05.86-1.9,1.92-1.9h3.83c1.06,0,1.92.85,1.92,1.9v5.69h-7.66v-5.69ZM28.38,37.82c0,1.57-1.29,2.84-2.87,2.84h-13.41c-1.59,0-2.87-1.27-2.87-2.84v-12.33c0-3.14,2.57-5.69,5.75-5.69h7.66c3.17,0,5.75,2.55,5.75,5.69v12.33ZM29.34,16.01c-.08,0-.18-.06-.22-.13l-.74-1.77-1.78-.74c-.07-.04-.13-.13-.13-.21s.06-.18.13-.21l1.78-.74.74-1.77c.04-.07.13-.13.22-.13s.18.06.22.13l.74,1.77,1.78.74c.07.04.13.13.13.21s-.06.18-.13.21l-1.78.74-.74,1.77c-.04.07-.13.13-.22.13ZM33.17,21.7c-.08,0-.18-.06-.22-.13l-.74-1.77-1.78-.74c-.07-.04-.13-.13-.13-.21s.06-.18.13-.21l1.78-.74.74-1.77c.04-.07.13-.13.22-.13s.18.06.22.13l.74,1.77,1.78.74c.07.04.13.13.13.21s-.06.18-.13.21l-1.78.74-.74,1.77c-.04.07-.13.13-.22.13ZM39.74,24.75l-1.78.74-.74,1.77c-.04.07-.13.13-.22.13s-.18-.06-.22-.13l-.74-1.77-1.78-.74c-.07-.04-.13-.13-.13-.21s.06-.18.13-.21l1.78-.74.74-1.77c.04-.07.13-.13.22-.13s.18.06.22.13l.74,1.77,1.78.74c.07.04.13.13.13.21s-.06.18-.13.21ZM39.74,13.37l-1.78.74-.74,1.77c-.04.07-.13.13-.22.13s-.18-.06-.22-.13l-.74-1.77-1.78-.74c-.07-.04-.13-.13-.13-.21s.06-.18.13-.21l1.78-.74.74-1.77c.04-.07.13-.13.22-.13s.18.06.22.13l.74,1.77,1.78.74c.07.04.13.13.13.21s-.06.18-.13.21Z" style="fill:#fffcd9;"/></svg>