<?xml version="1.0" encoding="UTF-8"?><svg id="a" xmlns="http://www.w3.org/2000/svg" viewBox="0 0 68.91 104"><g id="c"><path d="M33.52,104l-.66-.37L1.44,84.82c-.91-.54-1.44-1.53-1.44-2.7V3.1C0,1.09,1.49,0,2.88,0h63.14c1.4,0,2.88,1.09,2.88,3.1v79.01c0,1.16-.52,2.14-1.42,2.69l-32.45,19.19h-.78s-.74,0-.74,0Z" style="fill:#fffcd9;"/><path d="M34.26,101.23s-.01,0-.02,0L2.86,82.44s-.09-.16-.09-.32V3.1c0-.18.05-.33.11-.33h63.14c.06,0,.11.15.11.33v79.01c0,.16-.04.29-.09.32l-31.77,18.78s-.01,0-.02,0Z" style="fill:#042f47;"/></g><path d="M44.62,68.15l-12.12,12c-.59.59-1.55.59-2.14,0l-6.06-6c-.59-.59-.59-1.54,0-2.12.59-.59,1.55-.59,2.14,0l4.99,4.93,11.05-10.94c.59-.59,1.55-.59,2.14,0s.59,1.54,0,2.12h0ZM32.5,69.64c-.59.59-1.55.59-2.14,0l-3.79-3.75c-.59-.59-.59-1.54,0-2.12.59-.59,1.55-.59,2.15,0l2.72,2.69,6.5-6.44c.59-.59,1.55-.59,2.15,0s.59,1.54,0,2.12l-7.58,7.5Z" style="fill:#fffcd9;"/></svg>