<?xml version="1.0" encoding="UTF-8"?>
<svg id="Layer_2" data-name="Layer 2" xmlns="http://www.w3.org/2000/svg" viewBox="0 0 45.71 43.4">
  <defs>
    <style>
      .cls-1 {
        fill: #1f2b45;
      }

      .cls-2 {
        fill: #fff;
      }
    </style>
  </defs>
  <g id="Layer_3" data-name="Layer 3">
    <g>
      <rect class="cls-2" width="45.71" height="43.4" rx="2.13" ry="2.13"/>
      <path class="cls-1" d="M19.76,21.09l5.61,5.55c.17,2-.55,3.99-2,5.43-1.3,1.28-3.06,2.01-4.89,2.01h-8.21c-.58,0-1.05-.46-1.05-1.04,0-.3.13-.58.35-.77l5.98-5.33c.2-.17-.02-.49-.25-.37l-2.42,1.2c-.29.14-.62-.07-.62-.38,0-1.48.59-2.89,1.65-3.94l.38-.38c1.45-1.43,3.46-2.15,5.48-1.98ZM36.05,10.53c.59.59.59,1.54,0,2.12l-9.09,9,1.64,1.63c.2.2.31.47.31.75,0,.58-.48,1.06-1.07,1.06h-1.38l-5.12-5.08v-1.36c0-.58.48-1.06,1.07-1.06.28,0,.56.11.76.31l1.64,1.62,9.09-9c.59-.59,1.55-.59,2.14,0h0ZM31.19,26.58c1.35,0,2.6.71,3.28,1.87s.68,2.59,0,3.75c-.68,1.16-1.93,1.87-3.28,1.87s-2.6-.71-3.28-1.87c-.68-1.16-.68-2.59,0-3.75s1.93-1.87,3.28-1.87Z"/>
    </g>
  </g>
</svg>