<?xml version="1.0" encoding="UTF-8"?><svg id="a" xmlns="http://www.w3.org/2000/svg" viewBox="0 0 45.26 50"><path d="M26.46,22.41c-1.72,0-3.11,1.38-3.11,3.08v5.69c0,1.7,1.39,3.08,3.11,3.08s3.11-1.38,3.11-3.08v-5.69c0-1.7-1.39-3.08-3.11-3.08ZM27.18,31.18c0,.39-.32.71-.72.71s-.72-.32-.72-.71v-5.69c0-.39.32-.71.72-.71s.72.32.72.71v5.69Z" style="fill:#fffcd9;"/><path d="M20.72,31.88h-2.62c.05-.54.28-1.06.65-1.48l2.33-2.6c.53-.59.83-1.36.83-2.16v-.13c0-1.72-1.41-3.11-3.14-3.11-1.35,0-2.55.85-2.98,2.13l-.04.1c-.21.62.13,1.29.75,1.5.63.21,1.3-.12,1.51-.75l.04-.1c.1-.3.39-.51.71-.51.41,0,.75.33.75.74v.13c0,.21-.08.42-.22.58l-2.33,2.6c-.82.91-1.27,2.09-1.27,3.31v.93c0,.65.54,1.19,1.2,1.19h3.83c.66,0,1.2-.53,1.2-1.19s-.54-1.19-1.2-1.19Z" style="fill:#fffcd9;"/><path d="M43.14,0H2.13C.95,0,0,.95,0,2.13v45.75c0,1.18.95,2.13,2.13,2.13h41.01c1.18,0,2.13-.95,2.13-2.13V2.13c0-1.18-.95-2.13-2.13-2.13ZM22.63,40.66c-6.88,0-12.45-5.52-12.45-12.33,0-6.16,4.57-11.27,10.54-12.18v-2.04h-.96c-1.06,0-1.92-.85-1.92-1.9s.86-1.9,1.92-1.9h5.75c1.06,0,1.92.85,1.92,1.9s-.86,1.9-1.92,1.9h-.96v2.04c2.25.34,4.29,1.28,5.97,2.64l1.29-1.28c.75-.74,1.96-.74,2.71,0,.75.74.75,1.94,0,2.69l-1.44,1.43c1.27,1.93,2.01,4.23,2.01,6.71,0,6.81-5.57,12.33-12.45,12.33Z" style="fill:#fffcd9;"/></svg>