<?xml version="1.0" encoding="UTF-8"?>
<svg id="Layer_2" data-name="Layer 2" xmlns="http://www.w3.org/2000/svg" viewBox="0 0 80.36 89.55">
  <defs>
    <style>
      .cls-1 {
        fill: #cd3627;
      }

      .cls-2 {
        fill: #fff;
      }

      .cls-3 {
        fill: #f3e8d1;
      }
    </style>
  </defs>
  <g id="Layer_3" data-name="Layer 3">
    <g>
      <g id="white_shape" data-name="white shape">
        <path class="cls-3" d="M39.98,89.55c-.72,0-1.43-.09-2.13-.28-6.48-1.75-35.35-9.55-35.35-9.55l-.45-.12-.4-.24c-1.05-.64-1.65-1.78-1.65-3.14V13.44c0-1.94,1.18-3.14,2.51-3.5L37.82.29c.7-.19,1.43-.29,2.16-.29s1.44.09,2.14.28l35.72,9.65c1.33.36,2.52,1.56,2.52,3.51v62.77c0,1.38-.62,2.54-1.71,3.17l-.38.22-36.18,9.67c-.69.19-1.41.28-2.12.28Z"/>
        <path class="cls-1" d="M3.34,76.58c-.06-.03-.1-.19-.1-.37V13.44c0-.21.06-.38.12-.38L38.68,3.41c.85-.23,1.75-.23,2.6,0l35.72,9.65c.07,0,.12.17.12.38v62.77c0,.18-.04.34-.1.37l-35.76,9.56c-.84.23-1.72.23-2.57,0-6.48-1.75-35.35-9.55-35.35-9.55Z"/>
      </g>
      <path class="cls-2" d="M43.3,32.28c0,1.24-.74,2.31-1.81,2.79l6.34,5.49,6.24-1.24c-.32-.46-.5-1.01-.5-1.6,0-1.57,1.29-2.84,2.87-2.84s2.87,1.27,2.87,2.84-1.23,2.79-2.77,2.84l-6.73,14.81c-.62,1.36-1.98,2.23-3.49,2.23h-12.27c-1.51,0-2.87-.88-3.49-2.23l-6.73-14.81c-1.54-.05-2.77-1.3-2.77-2.84s1.29-2.84,2.87-2.84,2.87,1.27,2.87,2.84c0,.6-.19,1.15-.5,1.6l6.24,1.24,6.34-5.5c-1.06-.49-1.79-1.56-1.79-2.79,0-1.7,1.39-3.08,3.11-3.08s3.11,1.38,3.11,3.08h0Z"/>
    </g>
  </g>
</svg>