<?xml version="1.0" encoding="UTF-8"?><svg id="a" xmlns="http://www.w3.org/2000/svg" viewBox="0 0 68.91 61.67"><path d="M33.37,61.67l-.64-.45L1.44,42.49c-.92-.56-1.44-1.54-1.44-2.7V3.1C0,1.09,1.49,0,2.88,0h63.14c1.4,0,2.88,1.09,2.88,3.1v36.67c0,1.18-.53,2.17-1.46,2.71l-32.41,19.17h-.78s-.89,0-.89,0Z" style="fill:#fffcd9;"/><path d="M34.26,58.89s-.01,0-.02,0L2.86,40.1s-.09-.16-.09-.32V3.1c0-.18.05-.33.11-.33h63.14c.06,0,.11.15.11.33v36.67c0,.16-.04.29-.09.32l-31.77,18.78s-.01,0-.02,0Z" style="fill:#a01d27;"/><path d="M26.75,18.14l3.91,8.85h-3.31l-3.38-7.65c-.34-.76.01-1.64.78-1.97s1.66.01,1.99.77ZM28.03,28.51v-.02s3.3,0,3.3,0h1.24c1.05,0,1.89.84,1.89,1.87s-.85,1.88-1.89,1.88h-2.65c-.42,0-.76.34-.76.75s.34.75.76.75h2.65c1.88,0,3.41-1.51,3.41-3.37v-.03c.44.25.96.4,1.52.4.62,0,1.2-.19,1.69-.51.41,1.17,1.54,2.01,2.86,2.01.55,0,1.07-.15,1.52-.4v.4c0,4.14-3.39,7.5-7.58,7.5h-2.92c-2.01,0-3.93-.79-5.35-2.2l-.55-.54c-1.15-1.12-1.79-2.65-1.79-4.24v-1.26c0-1.53,1.16-2.8,2.67-2.98ZM32.94,15.74c.84,0,1.52.67,1.52,1.5v9.75h-3.03v-9.75c0-.83.68-1.5,1.52-1.5ZM37.49,23.24c.84,0,1.52.67,1.52,1.5v3c0,.83-.68,1.5-1.52,1.5s-1.52-.67-1.52-1.5v-3c0-.83.68-1.5,1.52-1.5ZM40.52,26.24c0-.83.68-1.5,1.52-1.5s1.52.67,1.52,1.5v3c0,.83-.68,1.5-1.52,1.5s-1.52-.67-1.52-1.5v-3Z" style="fill:#fffcd9;"/></svg>