<?xml version="1.0" encoding="UTF-8"?>
<svg id="Layer_2" data-name="Layer 2" xmlns="http://www.w3.org/2000/svg" viewBox="0 0 83.35 74.59">
  <defs>
    <style>
      .cls-1 {
        fill: #fffcd9;
      }

      .cls-2 {
        fill: #a01d27;
      }
    </style>
  </defs>
  <g id="Layer_1-2" data-name="Layer 1">
    <g>
      <g id="white_shape" data-name="white shape">
        <path class="cls-1" d="M40.57,74.59l-.88-.49L1.74,51.39c-1.11-.67-1.74-1.86-1.74-3.27V3.75C0,1.32,1.8,0,3.49,0h76.38c1.69,0,3.49,1.32,3.49,3.75v44.36c0,1.44-.65,2.64-1.78,3.29l-39.19,23.18h-.94s-.87,0-.87,0Z"/>
        <path class="cls-2" d="M41.44,71.23s-.02,0-.02,0L3.46,48.51c-.06-.04-.1-.2-.1-.39V3.75c0-.22.06-.39.13-.39h76.38c.07,0,.13.18.13.39v44.36c0,.19-.04.35-.1.39l-38.42,22.72s-.02,0-.02,0Z"/>
      </g>
      <path class="cls-1" d="M36.46,20.17l2.29,5.44c.39.92.12,1.99-.66,2.62l-2.82,2.28c1.91,3.99,5.17,7.22,9.2,9.11l2.31-2.79c.64-.78,1.72-1.04,2.65-.66l5.5,2.27c1.07.44,1.63,1.59,1.33,2.69l-1.37,4.99c-.28.99-1.18,1.67-2.21,1.67-14.17,0-25.66-11.37-25.66-25.4,0-1.02.69-1.92,1.69-2.19l5.04-1.36c1.11-.3,2.27.26,2.71,1.32h0Z"/>
    </g>
  </g>
</svg>