<?xml version="1.0" encoding="UTF-8"?>
<svg id="Layer_2" data-name="Layer 2" xmlns="http://www.w3.org/2000/svg" viewBox="0 0 80.36 89.55">
  <defs>
    <style>
      .cls-1 {
        fill: #1f2b45;
      }

      .cls-2 {
        fill: #fff;
      }
    </style>
  </defs>
  <g id="Layer_3" data-name="Layer 3">
    <g>
      <g id="white_shape" data-name="white shape">
        <path class="cls-2" d="M39.98,89.55c-.72,0-1.43-.09-2.13-.28-6.49-1.75-35.8-9.68-35.8-9.68l-.4-.24c-1.05-.64-1.65-1.78-1.65-3.14V13.44c0-1.94,1.18-3.14,2.51-3.5L37.82.29c.7-.19,1.43-.29,2.16-.29s1.44.1,2.14.28l35.72,9.65c1.33.36,2.52,1.56,2.52,3.51v62.76c0,1.38-.62,2.54-1.71,3.17l-.38.22-36.18,9.67c-.69.19-1.4.28-2.12.28Z"/>
        <path class="cls-1" d="M3.34,76.58c-.06-.03-.1-.19-.1-.37V13.44c0-.21.06-.38.12-.38L38.68,3.41c.85-.23,1.75-.23,2.6,0l35.72,9.65c.07,0,.12.17.12.38v62.77c0,.18-.04.34-.1.37l-35.76,9.56c-.84.23-1.72.23-2.57,0-6.48-1.75-35.35-9.55-35.35-9.55Z"/>
      </g>
      <path class="cls-2" d="M42.83,31.23c1.46,0,2.65,1.17,2.65,2.62v2.62h2.8c.94,0,1.84.37,2.5,1.02l4.27,4.22c.66.66,1.03,1.55,1.03,2.48v6.27c.98,0,1.77.78,1.77,1.75s-.79,1.75-1.77,1.75h-1.77c0,2.9-2.37,5.25-5.3,5.25s-5.3-2.35-5.3-5.25h-7.07c0,2.9-2.37,5.25-5.3,5.25s-5.3-2.35-5.3-5.25v-6.99h7.95c.49,0,.88-.39.88-.88s-.4-.87-.88-.87h-10.6c-.49,0-.88-.39-.88-.87s.4-.88.88-.88h12.37c.49,0,.88-.39.88-.87s-.4-.87-.88-.87h-10.6c-.49,0-.88-.39-.88-.87s.4-.87.88-.87h12.37c.49,0,.88-.39.88-.88s-.4-.87-.88-.87h-14.13c-.49,0-.88-.39-.88-.87s.4-.88.88-.88h2.65v-2.62c0-1.45,1.19-2.62,2.65-2.62h14.13ZM29.05,52.65c-.47.81-.47,1.81,0,2.62s1.35,1.31,2.29,1.31,1.82-.5,2.29-1.31.47-1.81,0-2.62-1.35-1.31-2.29-1.31-1.82.5-2.29,1.31ZM48.28,39.98h-2.8v5.25h7.07v-1.02l-4.27-4.22ZM47.69,56.24c.82.47,1.83.47,2.65,0,.82-.47,1.33-1.33,1.33-2.27s-.51-1.8-1.33-2.27c-.82-.47-1.83-.47-2.65,0-.82.47-1.33,1.33-1.33,2.27s.51,1.8,1.33,2.27Z"/>
    </g>
  </g>
</svg>