<?xml version="1.0" encoding="UTF-8"?>
<svg id="Layer_2" data-name="Layer 2" xmlns="http://www.w3.org/2000/svg" viewBox="0 0 49.1 50">
  <defs>
    <style>
      .cls-1 {
        fill: #1f2b45;
      }

      .cls-2 {
        fill: #fff;
      }
    </style>
  </defs>
  <g id="Layer_3" data-name="Layer 3">
    <g>
      <rect class="cls-2" width="49.1" height="50" rx="2.13" ry="2.13"/>
      <path class="cls-1" d="M22.63,19.8c3.17,0,5.75,2.55,5.75,5.69v12.33c0,1.57-1.29,2.84-2.87,2.84h-13.41c-1.59,0-2.87-1.27-2.87-2.84v-12.33c0-3.14,2.57-5.69,5.75-5.69h7.66ZM14.65,27.86c-.86,1.47-.86,3.27,0,4.74.86,1.47,2.44,2.37,4.15,2.37s3.29-.9,4.15-2.37c.86-1.47.86-3.27,0-4.74-.86-1.47-2.44-2.37-4.15-2.37s-3.29.9-4.15,2.37ZM16.88,10.32h3.83c1.06,0,1.92.85,1.92,1.9v5.69h-7.66v-5.69c0-1.05.86-1.9,1.92-1.9ZM32.08,13.37l-1.78.74-.74,1.77c-.04.07-.13.13-.22.13s-.18-.06-.22-.13l-.74-1.77-1.78-.74c-.07-.04-.13-.13-.13-.21s.06-.18.13-.21l1.78-.74.74-1.77c.04-.07.13-.13.22-.13s.18.06.22.13l.74,1.77,1.78.74c.07.04.13.13.13.21s-.06.18-.13.21ZM35.91,19.06l-1.78.74-.74,1.77c-.04.07-.13.13-.22.13s-.18-.06-.22-.13l-.74-1.77-1.78-.74c-.07-.04-.13-.13-.13-.21s.06-.18.13-.21l1.78-.74.74-1.77c.04-.07.13-.13.22-.13s.18.06.22.13l.74,1.77,1.78.74c.07.04.13.13.13.21s-.06.18-.13.21ZM36.04,14.11l-1.78-.74c-.07-.04-.13-.13-.13-.21s.06-.18.13-.21l1.78-.74.74-1.77c.04-.07.13-.13.22-.13s.18.06.22.13l.74,1.77,1.78.74c.07.04.13.13.13.21s-.06.18-.13.21l-1.78.74-.74,1.77c-.04.07-.13.13-.22.13s-.18-.06-.22-.13l-.74-1.77ZM37.96,23.59l1.78.74c.07.04.13.13.13.21s-.06.18-.13.21l-1.78.74-.74,1.77c-.04.07-.13.13-.22.13s-.18-.06-.22-.13l-.74-1.77-1.78-.74c-.07-.04-.13-.13-.13-.21s.06-.18.13-.21l1.78-.74.74-1.77c.04-.07.13-.13.22-.13s.18.06.22.13l.74,1.77Z"/>
    </g>
  </g>
</svg>