<?xml version="1.0" encoding="UTF-8"?>
<svg id="Layer_2" data-name="Layer 2" xmlns="http://www.w3.org/2000/svg" viewBox="0 0 83.35 74.59">
  <defs>
    <style>
      .cls-1 {
        fill: #fffcd9;
      }

      .cls-2 {
        fill: #a01d27;
      }
    </style>
  </defs>
  <g id="Layer_1-2" data-name="Layer 1">
    <g>
      <g id="white_shape" data-name="white shape">
        <path class="cls-1" d="M40.57,74.59l-.88-.49L1.74,51.39c-1.11-.67-1.74-1.86-1.74-3.27V3.75C0,1.32,1.8,0,3.49,0h76.38c1.69,0,3.49,1.32,3.49,3.75v44.36c0,1.44-.65,2.64-1.78,3.29l-39.19,23.18h-.94s-.87,0-.87,0Z"/>
        <path class="cls-2" d="M41.44,71.23s-.02,0-.02,0L3.46,48.51c-.06-.04-.1-.2-.1-.39V3.75c0-.22.06-.39.13-.39h76.38c.07,0,.13.18.13.39v44.36c0,.19-.04.35-.1.39l-38.42,22.72s-.02,0-.02,0Z"/>
      </g>
      <path class="cls-1" d="M28.85,26.03v12.7c0,1-.82,1.81-1.83,1.81h-1.83c-1.01,0-1.83-.81-1.83-1.81v-11.79c0-.5.41-.91.92-.91h4.58ZM25.18,37.82c0,.5.41.91.92.91s.92-.41.92-.91-.41-.91-.92-.91-.92.41-.92.91ZM50.86,37.63c1.12,1.01,1.19,2.74.17,3.84-.93,1.01-2.45,1.16-3.56.42-.12.33-.31.66-.57.94-1.03,1.11-2.77,1.18-3.88.16l-.97-.88c-.11.42-.32.82-.64,1.17-1.02,1.11-2.76,1.19-3.88.18l-5.23-4.73h-1.62v-12.7l4.12-2.72c.9-.59,1.95-.91,3.02-.9.73,0,1.44.14,2.11.42l-4.76,3.82c-1.68,1.34-2,3.76-.73,5.49,1.35,1.84,3.97,2.2,5.77.8l2.96-2.28,7.69,6.97ZM45.31,22.4c1.04,0,2.07.29,2.94.85l4.16,2.64.22.14h.04v10.7l-7.96-7.26,1.2-.92c.4-.31.47-.88.16-1.28-.32-.4-.89-.46-1.29-.16l-5.69,4.38c-.99.76-2.43.57-3.17-.44-.7-.95-.52-2.27.4-3.01l5.54-4.44c.97-.78,2.19-1.2,3.44-1.2ZM59.08,26.03c.5,0,.92.41.92.91v11.79c0,1-.82,1.81-1.83,1.81h-1.83c-1.01,0-1.83-.81-1.83-1.81v-12.7h4.58ZM57.25,38.73c.51,0,.92-.41.92-.91s-.41-.91-.92-.91-.92.41-.92.91.41.91.92.91Z"/>
    </g>
  </g>
</svg>