<?xml version="1.0" encoding="UTF-8"?>
<svg id="Layer_2" data-name="Layer 2" xmlns="http://www.w3.org/2000/svg" viewBox="0 0 47.18 48.62">
  <defs>
    <style>
      .cls-1 {
        fill: #fffcd9;
      }

      .cls-2 {
        fill: #a01d27;
      }
    </style>
  </defs>
  <g id="Layer_1-2" data-name="Layer 1">
    <g>
      <rect class="cls-1" width="47.18" height="48.62" rx="2.13" ry="2.13"/>
      <path class="cls-2" d="M35.67,14.13c1.32.55,2.3,1.84,2.29,3.39-.03,5.88-2.47,16.63-12.79,21.52-1,.47-2.16.47-3.16,0-10.32-4.89-12.76-15.65-12.79-21.52,0-1.55.98-2.84,2.29-3.39l11.27-4.74c.25-.11.52-.17.8-.17s.55.06.8.17l11.27,4.74ZM16.9,22.34c0,.96.38,1.88,1.07,2.57l4.95,4.9c.37.37.98.37,1.35,0l4.95-4.9c.68-.68,1.07-1.61,1.07-2.57,0-2.01-1.65-3.63-3.67-3.63-.97,0-1.9.38-2.59,1.06l-.44.44-.44-.44c-.69-.68-1.62-1.06-2.59-1.06-2.03,0-3.67,1.63-3.67,3.63h.01Z"/>
    </g>
  </g>
</svg>