<?xml version="1.0" encoding="UTF-8"?>
<svg id="Layer_2" data-name="Layer 2" xmlns="http://www.w3.org/2000/svg" viewBox="0 0 83.35 74.59">
  <defs>
    <style>
      .cls-1 {
        fill: #fffcd9;
      }

      .cls-2 {
        fill: #a01d27;
      }
    </style>
  </defs>
  <g id="Layer_1-2" data-name="Layer 1">
    <g>
      <g id="white_shape" data-name="white shape">
        <path class="cls-1" d="M40.57,74.59l-.88-.49L1.74,51.39c-1.11-.67-1.74-1.86-1.74-3.27V3.75C0,1.32,1.8,0,3.49,0h76.38c1.69,0,3.49,1.32,3.49,3.75v44.36c0,1.44-.65,2.64-1.78,3.29l-39.19,23.18h-.94s-.87,0-.87,0Z"/>
        <path class="cls-2" d="M41.44,71.23s-.02,0-.02,0L3.46,48.51c-.06-.04-.1-.2-.1-.39V3.75c0-.22.06-.39.13-.39h76.38c.07,0,.13.18.13.39v44.36c0,.19-.04.35-.1.39l-38.42,22.72s-.02,0-.02,0Z"/>
      </g>
      <path class="cls-1" d="M23.35,21.49c0-1.5,1.23-2.72,2.75-2.72h18.33c1.52,0,2.75,1.22,2.75,2.72v2.72h2.9c.97,0,1.91.38,2.59,1.06l4.43,4.38c.69.68,1.07,1.6,1.07,2.57v6.5c1.01,0,1.83.81,1.83,1.81s-.82,1.81-1.83,1.81h-1.83c0,3-2.46,5.44-5.5,5.44s-5.5-2.44-5.5-5.44h-7.33c0,3-2.46,5.44-5.5,5.44s-5.5-2.44-5.5-5.44h-.92c-1.52,0-2.75-1.22-2.75-2.72v-18.14ZM38.07,24.16c-.54-.53-1.41-.53-1.94,0s-.54,1.39,0,1.92l2.23,2.21h-9.51c-.76,0-1.38.61-1.38,1.37s.61,1.36,1.38,1.36h9.51l-2.23,2.21c-.54.53-.54,1.39,0,1.92s1.41.53,1.94,0l4.58-4.54c.54-.53.54-1.39,0-1.92l-4.58-4.54ZM32.51,45.08c.98,0,1.89-.52,2.38-1.36s.49-1.88,0-2.72-1.4-1.36-2.38-1.36-1.89.52-2.38,1.36-.49,1.88,0,2.72,1.4,1.36,2.38,1.36ZM47.17,33.29h7.33v-1.06l-4.43-4.38h-2.9v5.44ZM53.59,42.36c0-.97-.52-1.87-1.37-2.36-.85-.49-1.9-.49-2.75,0-.85.49-1.37,1.38-1.37,2.36s.52,1.87,1.37,2.36c.85.49,1.9.49,2.75,0,.85-.49,1.37-1.38,1.37-2.36Z"/>
    </g>
  </g>
</svg>