<?xml version="1.0" encoding="UTF-8"?><svg id="a" xmlns="http://www.w3.org/2000/svg" viewBox="0 0 56.76 50"><path d="M14.01,16.01c-.53,0-.96.43-.96.95v9.02c.59-.48,1.23-.9,1.92-1.25v-7.78c0-.52-.43-.95-.96-.95Z" style="fill:#fffcd9;"/><ellipse cx="19.76" cy="34.02" rx="1.92" ry="1.9" style="fill:#fffcd9;"/><path d="M25.51,16.01c-.53,0-.96.43-.96.95v7.78c.68.34,1.33.76,1.92,1.25v-9.02c0-.52-.43-.95-.96-.95Z" style="fill:#fffcd9;"/><path d="M19.76,16.01c-.53,0-.96.43-.96.95v6.68c.32-.03.63-.04.96-.04s.64.01.96.04v-6.68c0-.52-.43-.95-.96-.95Z" style="fill:#fffcd9;"/><path d="M54.63,0H2.13C.95,0,0,.95,0,2.13v45.75c0,1.18.95,2.13,2.13,2.13h52.5c1.18,0,2.13-.95,2.13-2.13V2.13c0-1.18-.95-2.13-2.13-2.13ZM23.91,36.39c-.86,1.47-2.44,2.37-4.15,2.37s-3.29-.9-4.15-2.37c-.86-1.47-.86-3.27,0-4.74.86-1.47,2.44-2.37,4.15-2.37s3.29.9,4.15,2.37c.86,1.47.86,3.27,0,4.74ZM45.62,33.07h-19.23c-.47-3.22-3.26-5.69-6.64-5.69s-6.17,2.47-6.64,5.69h-1.02c-1.59,0-2.87-1.27-2.87-2.84v-15.17c0-1.57,1.29-2.84,2.87-2.84h26.82c1.59,0,2.87,1.27,2.87,2.84v14.22h3.83c1.06,0,1.92.85,1.92,1.9s-.86,1.9-1.92,1.9Z" style="fill:#fffcd9;"/><path d="M31.25,16.01c-.53,0-.96.43-.96.95v11.38c0,.52.43.95.96.95s.96-.43.96-.95v-11.38c0-.52-.43-.95-.96-.95Z" style="fill:#fffcd9;"/><path d="M37,16.01c-.53,0-.96.43-.96.95v11.38c0,.52.43.95.96.95s.96-.43.96-.95v-11.38c0-.52-.43-.95-.96-.95Z" style="fill:#fffcd9;"/></svg>