<?xml version="1.0" encoding="UTF-8"?>
<svg id="Layer_2" data-name="Layer 2" xmlns="http://www.w3.org/2000/svg" viewBox="0 0 80.36 89.55">
  <defs>
    <style>
      .cls-1 {
        fill: #cd3627;
      }

      .cls-2 {
        fill: #fff;
      }

      .cls-3 {
        fill: #f3e8d1;
      }
    </style>
  </defs>
  <g id="Layer_3" data-name="Layer 3">
    <g>
      <g id="white_shape" data-name="white shape">
        <path class="cls-3" d="M39.98,89.55c-.72,0-1.43-.09-2.12-.28-6.49-1.75-35.8-9.68-35.8-9.68l-.4-.24c-1.05-.64-1.65-1.78-1.65-3.14V13.44c0-1.94,1.18-3.14,2.51-3.5L37.82.29c.7-.19,1.43-.29,2.16-.29s1.44.1,2.14.29l35.72,9.65c1.33.36,2.52,1.56,2.52,3.51v62.76c0,1.38-.62,2.54-1.71,3.17l-.38.22-36.18,9.67c-.69.19-1.4.28-2.12.28Z"/>
        <path class="cls-1" d="M3.34,76.58c-.06-.03-.1-.19-.1-.37V13.44c0-.21.06-.38.12-.38L38.68,3.41c.85-.23,1.75-.23,2.6,0l35.72,9.65c.07,0,.12.17.12.38v62.77c0,.18-.04.34-.1.37l-35.76,9.56c-.84.23-1.72.23-2.57,0-6.48-1.75-35.35-9.55-35.35-9.55Z"/>
      </g>
      <path class="cls-2" d="M26.79,36.78c1.05,0,1.91.85,1.91,1.89v2.92s2.59-4.44,2.59-4.44l4.07-6.97c.39-.68,1.27-.91,1.96-.52.69.39.92,1.26.53,1.94l-3.71,6.36c-.2.34-.08.78.26.97s.78.08.98-.26l4.66-7.99c.39-.68,1.27-.91,1.96-.52s.92,1.26.53,1.94l-2.74,4.7c-.56.06-1.12.24-1.63.56l-3.6,2.22c-3.64,2.26-5.85,6.21-5.85,10.46v.47c0,.11,0,.22,0,.34-2.39-1.9-3.82-4.79-3.83-7.88v-4.29c0-1.04.86-1.89,1.91-1.89ZM31.09,59.12c-.89.51-1.98.51-2.87,0-.89-.51-1.43-1.44-1.43-2.46s.55-1.95,1.43-2.46c.89-.51,1.98-.51,2.87,0,.89.51,1.43,1.44,1.43,2.46s-.55,1.95-1.43,2.46ZM41.81,39.56c.56.89.29,2.05-.61,2.61l-2.76,1.71h13.7c.79,0,1.43.63,1.43,1.42s-.64,1.42-1.43,1.42h-7.41c-.39,0-.72.32-.72.71s.32.71.72.71h9.33c.79,0,1.43.63,1.43,1.42s-.64,1.42-1.43,1.42h-9.33c-.39,0-.72.32-.72.71s.32.71.72.71h7.41c.79,0,1.43.63,1.43,1.42s-.64,1.42-1.43,1.42h-7.41c-.39,0-.72.32-.72.71s.32.71.72.71h5.5c.79,0,1.43.63,1.43,1.42s-.64,1.42-1.43,1.42h-10.52c-2.01,0-3.88-.65-5.39-1.75.08-.35.13-.71.13-1.09,0-2.24-1.58-4.12-3.69-4.61-.08-.5-.13-1.02-.13-1.54v-.47c0-3.6,1.87-6.94,4.95-8.85l3.6-2.22c.9-.55,2.08-.28,2.64.6h0ZM42.81,34.43c.39-.68,1.27-.91,1.96-.52s.92,1.26.53,1.94l-1.73,2.96c-.04-.09-.1-.17-.15-.26-.5-.79-1.24-1.33-2.07-1.6l1.47-2.51h0ZM45.6,38.21c.39-.68,1.27-.91,1.96-.52s.92,1.26.53,1.94l-1.38,2.35h-2.98c.13-.33.22-.67.26-1.03l1.6-2.75h0ZM45.92,31.1c0-1.05.86-1.89,1.91-1.89s1.91.85,1.91,1.89-.86,1.89-1.91,1.89-1.91-.85-1.91-1.89ZM51.66,38.67c0-1.05.86-1.89,1.91-1.89s1.91.85,1.91,1.89-.86,1.89-1.91,1.89-1.91-.85-1.91-1.89Z"/>
    </g>
  </g>
</svg>