<?xml version="1.0" encoding="UTF-8"?>
<svg id="Layer_2" data-name="Layer 2" xmlns="http://www.w3.org/2000/svg" viewBox="0 0 80.36 71.91">
  <defs>
    <style>
      .cls-1 {
        fill: #fffcd9;
      }

      .cls-2 {
        fill: #042f47;
      }
    </style>
  </defs>
  <g id="Layer_1-2" data-name="Layer 1">
    <g>
      <g id="white_shape" data-name="white shape">
        <path class="cls-1" d="M39.02,71.91l-.81-.5L1.68,49.54c-1.07-.65-1.68-1.8-1.68-3.15V3.62C0,1.27,1.73,0,3.36,0h73.63c1.63,0,3.36,1.27,3.36,3.62v42.77c0,1.37-.61,2.52-1.69,3.16l-37.81,22.36h-.91s-.93,0-.93,0Z"/>
        <path class="cls-2" d="M39.95,68.67s-.02,0-.02,0L3.34,46.76c-.06-.03-.1-.19-.1-.37V3.62c0-.21.06-.38.12-.38h73.63c.07,0,.12.17.12.38v42.76c0,.18-.04.34-.1.37l-37.04,21.9s-.02,0-.02,0Z"/>
      </g>
      <path class="cls-1" d="M42.83,18.1c1.46,0,2.65,1.17,2.65,2.62v2.62h2.8c.94,0,1.84.37,2.5,1.02l4.27,4.22c.66.66,1.03,1.55,1.03,2.48v6.27c.98,0,1.77.78,1.77,1.75s-.79,1.75-1.77,1.75h-1.77c0,2.9-2.37,5.25-5.3,5.25s-5.3-2.35-5.3-5.25h-7.07c0,2.9-2.37,5.25-5.3,5.25s-5.3-2.35-5.3-5.25v-6.99h7.95c.49,0,.88-.39.88-.88s-.4-.87-.88-.87h-10.6c-.49,0-.88-.39-.88-.87s.4-.88.88-.88h12.37c.49,0,.88-.39.88-.87s-.4-.87-.88-.87h-10.6c-.49,0-.88-.39-.88-.87s.4-.87.88-.87h12.37c.49,0,.88-.39.88-.88s-.4-.87-.88-.87h-14.13c-.49,0-.88-.39-.88-.87s.4-.88.88-.88h2.65v-2.62c0-1.45,1.19-2.62,2.65-2.62h14.13ZM29.05,39.52c-.47.81-.47,1.81,0,2.62s1.35,1.31,2.29,1.31,1.82-.5,2.29-1.31.47-1.81,0-2.62-1.35-1.31-2.29-1.31-1.82.5-2.29,1.31ZM48.28,26.85h-2.8v5.25h7.07v-1.02l-4.27-4.22ZM47.69,43.1c.82.47,1.83.47,2.65,0,.82-.47,1.33-1.33,1.33-2.27s-.51-1.8-1.33-2.27c-.82-.47-1.83-.47-2.65,0-.82.47-1.33,1.33-1.33,2.27s.51,1.8,1.33,2.27Z"/>
    </g>
  </g>
</svg>