<?xml version="1.0" encoding="UTF-8"?><svg id="a" xmlns="http://www.w3.org/2000/svg" viewBox="0 0 68.91 61.66"><g id="b"><path d="M33.42,61.66l-.65-.43L1.44,42.48c-.91-.55-1.44-1.53-1.44-2.7V3.1C0,1.09,1.49,0,2.88,0h63.14c1.4,0,2.88,1.09,2.88,3.1v36.67c0,1.18-.53,2.17-1.46,2.71l-32.41,19.17h-.78s-.84,0-.84,0Z" style="fill:#fffcd9;"/><path d="M34.26,58.89s-.01,0-.02,0L2.86,40.1s-.09-.16-.09-.32V3.1c0-.18.05-.33.11-.33h63.14c.06,0,.11.15.11.33v36.67c0,.16-.04.29-.09.32l-31.77,18.78s-.01,0-.02,0Z" style="fill:#a01d27;"/></g><path d="M31.36,26.71l5.61,5.55c.17,2-.55,3.99-2,5.43-1.3,1.28-3.06,2.01-4.89,2.01h-8.21c-.58,0-1.05-.46-1.05-1.04,0-.3.13-.58.35-.77l5.98-5.33c.2-.17-.02-.49-.25-.37l-2.42,1.2c-.29.14-.62-.07-.62-.38,0-1.48.59-2.89,1.65-3.94l.38-.38c1.45-1.43,3.46-2.15,5.48-1.98ZM47.65,16.15c.59.59.59,1.54,0,2.12l-9.09,9,1.64,1.63c.2.2.31.47.31.75,0,.58-.48,1.06-1.07,1.06h-1.38l-5.12-5.08v-1.36c0-.59.48-1.06,1.07-1.06.28,0,.56.11.76.31l1.64,1.63,9.09-9c.59-.59,1.55-.59,2.14,0h0ZM42.79,32.2c1.35,0,2.6.71,3.28,1.88s.68,2.59,0,3.75c-.68,1.16-1.93,1.87-3.28,1.87s-2.6-.71-3.28-1.87c-.68-1.16-.68-2.59,0-3.75s1.93-1.88,3.28-1.88Z" style="fill:#fffcd9;"/></svg>