<?xml version="1.0" encoding="UTF-8"?>
<svg id="Layer_2" data-name="Layer 2" xmlns="http://www.w3.org/2000/svg" viewBox="0 0 52.93 46.29">
  <defs>
    <style>
      .cls-1 {
        fill: #fffcd9;
      }

      .cls-2 {
        fill: #a01d27;
      }
    </style>
  </defs>
  <g id="Layer_1-2" data-name="Layer 1">
    <g>
      <rect class="cls-1" width="52.93" height="46.29" rx="2.13" ry="2.13"/>
      <path class="cls-2" d="M9.22,18.04v-.34c0-4.14,3.02-7.67,7.15-8.36,2.73-.45,5.51.43,7.46,2.37l.72.71.72-.71c1.95-1.93,4.73-2.82,7.46-2.37,4.13.68,7.15,4.21,7.15,8.36v.34c0,.39-.02.78-.08,1.16-1.42-.7-3.02-1.1-4.71-1.1-5.82,0-10.54,4.67-10.54,10.43,0,2.17.67,4.18,1.81,5.85l-.16.14c-.45.42-1.04.65-1.66.65s-1.21-.23-1.66-.65l-10.82-10c-1.82-1.68-2.85-4.03-2.85-6.49ZM27.62,32.8c-1.54-2.64-1.54-5.89,0-8.53,1.54-2.64,4.39-4.27,7.47-4.27s5.93,1.63,7.47,4.27c1.54,2.64,1.54,5.89,0,8.53-1.54,2.64-4.39,4.27-7.47,4.27s-5.93-1.63-7.47-4.27ZM37.05,23.7l-5.75,4.27c-.25.18-.35.5-.25.79.1.29.37.49.68.49h2.13l-1.8,3.21c-.17.3-.1.66.16.88.26.22.63.24.9.04l5.75-4.27c.25-.18.35-.5.25-.79-.1-.29-.37-.49-.68-.49h-2.13l1.8-3.21c.17-.3.1-.66-.16-.88-.26-.22-.63-.24-.9-.04Z"/>
    </g>
  </g>
</svg>