<?xml version="1.0" encoding="UTF-8"?><svg id="a" xmlns="http://www.w3.org/2000/svg" viewBox="0 0 68.91 61.66"><g id="b"><path d="M33.52,61.66l-.66-.37L1.44,42.48c-.91-.53-1.44-1.52-1.44-2.7V3.1C0,1.09,1.49,0,2.88,0h63.14c1.4,0,2.88,1.09,2.88,3.1v36.67c0,1.17-.52,2.15-1.43,2.7l-32.44,19.18h-.78s-.74,0-.74,0Z" style="fill:#fffcd9;"/><path d="M34.26,58.89s-.01,0-.02,0L2.86,40.1s-.09-.16-.09-.32V3.1c0-.18.05-.33.11-.33h63.14c.06,0,.11.15.11.33v36.67c0,.16-.04.29-.09.32l-31.77,18.78s-.01,0-.02,0Z" style="fill:#a01d27;"/></g><path d="M36.73,15.71c1.25,0,2.27,1.01,2.27,2.25v2.25h2.4c.81,0,1.58.31,2.15.88l3.66,3.62c.57.56.89,1.33.89,2.12v5.37c.84,0,1.52.67,1.52,1.5s-.68,1.5-1.52,1.5h-1.52c0,2.48-2.04,4.5-4.55,4.5s-4.55-2.01-4.55-4.5h-6.06c0,2.48-2.04,4.5-4.55,4.5s-4.55-2.01-4.55-4.5v-6h6.82c.42,0,.76-.34.76-.75s-.34-.75-.76-.75h-9.09c-.42,0-.76-.34-.76-.75s.34-.75.76-.75h10.61c.42,0,.76-.34.76-.75s-.34-.75-.76-.75h-9.09c-.42,0-.76-.34-.76-.75s.34-.75.76-.75h10.61c.42,0,.76-.34.76-.75s-.34-.75-.76-.75h-12.12c-.42,0-.76-.34-.76-.75s.34-.75.76-.75h2.27v-2.25c0-1.24,1.02-2.25,2.27-2.25h12.12ZM24.91,34.08c-.41.7-.41,1.55,0,2.25.41.7,1.16,1.12,1.97,1.12s1.56-.43,1.97-1.12c.41-.7.41-1.55,0-2.25-.41-.7-1.16-1.12-1.97-1.12s-1.56.43-1.97,1.12ZM41.4,23.2h-2.4v4.5h6.06v-.88l-3.66-3.62ZM40.9,37.15c.7.4,1.57.4,2.27,0,.7-.4,1.14-1.14,1.14-1.95s-.43-1.55-1.14-1.95c-.7-.4-1.57-.4-2.27,0-.7.4-1.14,1.14-1.14,1.95s.43,1.55,1.14,1.95Z" style="fill:#fffcd9;"/></svg>