<?xml version="1.0" encoding="UTF-8"?>
<svg id="Layer_2" data-name="Layer 2" xmlns="http://www.w3.org/2000/svg" viewBox="0 0 52.93 50">
  <defs>
    <style>
      .cls-1 {
        fill: #1f2b45;
      }

      .cls-2 {
        fill: #fff;
      }
    </style>
  </defs>
  <g id="Layer_3" data-name="Layer 3">
    <g>
      <rect class="cls-2" width="52.93" height="50" rx="2.13" ry="2.13"/>
      <path class="cls-1" d="M13.05,16.01l1.27-3.35c.1-.27.36-.44.65-.44s.54.18.65.44l1.27,3.35,3.38,1.26c.27.1.45.36.45.64s-.18.54-.45.64l-3.38,1.26-1.27,3.35c-.1.27-.36.44-.65.44s-.54-.18-.65-.44l-1.27-3.35-3.38-1.26c-.27-.1-.45-.36-.45-.64s.18-.54.45-.64l3.38-1.26ZM34.81,11.15c1.13-1.11,2.95-1.11,4.07,0l2.07,2.04c1.12,1.11,1.12,2.92,0,4.02l-22.83,22.6c-1.13,1.11-2.95,1.11-4.07,0l-2.07-2.05c-1.12-1.11-1.12-2.92,0-4.02l22.83-22.6ZM24.12,10.61c.07-.18.24-.3.43-.3s.37.12.43.3l.84,2.23,2.26.84c.18.07.3.24.3.43s-.12.36-.3.43l-2.26.84-.84,2.23c-.07.18-.24.3-.43.3s-.37-.12-.43-.3l-.84-2.23-2.26-.84c-.18-.07-.3-.24-.3-.43s.12-.36.3-.43l2.26-.84.84-2.23ZM34.13,31.18l1.27-3.35c.1-.27.36-.44.65-.44s.54.18.65.44l1.27,3.35,3.38,1.26c.27.1.45.36.45.64s-.18.54-.45.64l-3.38,1.26-1.27,3.35c-.1.27-.36.44-.65.44s-.54-.18-.65-.44l-1.27-3.35-3.38-1.26c-.27-.1-.45-.36-.45-.64s.18-.54.45-.64l3.38-1.26ZM36.84,13.83l-6.29,6.22,1.39,1.38,6.29-6.22-1.4-1.38Z"/>
    </g>
  </g>
</svg>