<?xml version="1.0" encoding="UTF-8"?>
<svg id="Layer_2" data-name="Layer 2" xmlns="http://www.w3.org/2000/svg" viewBox="0 0 52.93 48.79">
  <defs>
    <style>
      .cls-1 {
        fill: #fffcd9;
      }

      .cls-2 {
        fill: #a01d27;
      }
    </style>
  </defs>
  <g id="Layer_1-2" data-name="Layer 1">
    <g>
      <rect class="cls-1" width="52.93" height="48.79" rx="2.13" ry="2.13"/>
      <path class="cls-2" d="M9.22,12.07c0-1.57,1.29-2.84,2.87-2.84h17.24c1.59,0,2.87,1.27,2.87,2.84v9.42l-2.54,1.01h-4.17c-.53,0-.96.43-.96.95v3.79c0,.05,0,.1.01.15.14,3.44,1.44,8.58,5.91,11.94-.35.15-.73.23-1.13.23h-5.75v-4.74c0-1.57-1.29-2.84-2.87-2.84s-2.87,1.27-2.87,2.84v4.74h-5.75c-1.59,0-2.87-1.27-2.87-2.84V12.07ZM13.05,15.86v1.9c0,.52.43.95.96.95h1.92c.53,0,.96-.43.96-.95v-1.9c0-.52-.43-.95-.96-.95h-1.92c-.53,0-.96.43-.96.95ZM14.01,22.5c-.53,0-.96.43-.96.95v1.9c0,.52.43.95.96.95h1.92c.53,0,.96-.43.96-.95v-1.9c0-.52-.43-.95-.96-.95h-1.92ZM19.76,14.91c-.53,0-.96.43-.96.95v1.9c0,.52.43.95.96.95h1.92c.53,0,.96-.43.96-.95v-1.9c0-.52-.43-.95-.96-.95h-1.92ZM18.8,23.44v1.9c0,.52.43.95.96.95h1.92c.53,0,.96-.43.96-.95v-1.9c0-.52-.43-.95-.96-.95h-1.92c-.53,0-.96.43-.96.95ZM24.55,15.86v1.9c0,.52.43.95.96.95h1.92c.53,0,.96-.43.96-.95v-1.9c0-.52-.43-.95-.96-.95h-1.92c-.53,0-.96.43-.96.95ZM34.55,22.6c.34-.14.72-.14,1.07,0l7.18,2.84c.54.22.9.74.9,1.32,0,3.75-1.55,10-8.07,12.69-.35.15-.75.15-1.11,0-6.51-2.69-8.07-8.94-8.07-12.69,0-.58.36-1.1.9-1.32l7.18-2.84ZM40.8,27.71l-5.71-2.26v11.13c4.08-1.96,5.48-5.87,5.71-8.87h0Z"/>
    </g>
  </g>
</svg>