<?xml version="1.0" encoding="UTF-8"?>
<svg id="Layer_2" data-name="Layer 2" xmlns="http://www.w3.org/2000/svg" viewBox="0 0 80.36 89.55">
  <defs>
    <style>
      .cls-1 {
        fill: #1f2b45;
      }

      .cls-2 {
        fill: #fff;
      }
    </style>
  </defs>
  <g id="Layer_3" data-name="Layer 3">
    <g>
      <g id="white_shape" data-name="white shape">
        <path class="cls-2" d="M39.98,89.55c-.72,0-1.43-.09-2.13-.28-6.48-1.75-35.35-9.55-35.35-9.55l-.43-.12-.38-.23c-1.07-.63-1.69-1.79-1.69-3.16V13.44c0-1.94,1.18-3.14,2.51-3.5L37.82.29c.7-.19,1.43-.29,2.16-.29s1.44.09,2.14.28l35.72,9.65c1.33.36,2.52,1.56,2.52,3.51v62.76c0,1.36-.61,2.51-1.67,3.15l-.39.23-36.2,9.68c-.69.19-1.41.28-2.12.28Z"/>
        <path class="cls-1" d="M3.34,76.58c-.06-.03-.1-.19-.1-.37V13.44c0-.21.06-.38.12-.38L38.68,3.41c.85-.23,1.75-.23,2.6,0l35.72,9.65c.07,0,.12.17.12.38v62.77c0,.18-.04.34-.1.37l-35.76,9.56c-.84.23-1.72.23-2.57,0-6.48-1.75-35.35-9.55-35.35-9.55Z"/>
      </g>
      <path class="cls-2" d="M30.45,32.23l4.94,11.17h-4.18l-4.26-9.66c-.42-.96.02-2.07.99-2.49.97-.42,2.1.02,2.52.98ZM32.07,45.33v-.03s4.17,0,4.17,0h1.56c1.32,0,2.39,1.06,2.39,2.37s-1.07,2.37-2.39,2.37h-3.35c-.53,0-.96.43-.96.95s.43.95.96.95h3.35c2.38,0,4.3-1.91,4.3-4.26v-.04c.56.32,1.21.51,1.91.51.79,0,1.52-.24,2.13-.64.52,1.47,1.94,2.53,3.61,2.53.7,0,1.35-.18,1.91-.51v.51c0,5.23-4.28,9.47-9.57,9.47h-3.69c-2.54,0-4.97-1-6.76-2.78l-.69-.69c-1.45-1.42-2.25-3.35-2.25-5.35v-1.6c0-1.94,1.47-3.53,3.37-3.76ZM38.27,29.2c1.06,0,1.91.85,1.91,1.89v12.31h-3.83v-12.31c0-1.05.85-1.89,1.91-1.89ZM44,38.67c1.06,0,1.91.85,1.91,1.89v3.79c0,1.05-.85,1.89-1.91,1.89s-1.91-.85-1.91-1.89v-3.79c0-1.05.85-1.89,1.91-1.89ZM47.83,42.46c0-1.05.85-1.89,1.91-1.89s1.91.85,1.91,1.89v3.79c0,1.05-.85,1.89-1.91,1.89s-1.91-.85-1.91-1.89v-3.79Z"/>
    </g>
  </g>
</svg>