<?xml version="1.0" encoding="UTF-8"?><svg id="a" xmlns="http://www.w3.org/2000/svg" viewBox="0 0 56.76 50"><path d="M54.63,0H2.13C.95,0,0,.95,0,2.13v45.75c0,1.18.95,2.13,2.13,2.13h52.5c1.18,0,2.13-.95,2.13-2.13V2.13c0-1.18-.95-2.13-2.13-2.13ZM20.72,38.76c0,1.05-.86,1.9-1.92,1.9h-7.66c-1.06,0-1.92-.85-1.92-1.9v-7.59c0-1.05.86-1.9,1.92-1.9h7.66c1.06,0,1.92.85,1.92,1.9v7.59ZM34.13,38.76c0,1.05-.86,1.9-1.92,1.9h-7.66c-1.06,0-1.92-.85-1.92-1.9v-11.38c0-1.05.86-1.9,1.92-1.9h7.66c1.06,0,1.92.85,1.92,1.9v11.38ZM33.93,15.14l-2.28,2.17.54,3.09c.09.55-.49.98-1.01.72l-2.79-1.45-2.81,1.47c-.52.25-1.09-.17-1.01-.72l.54-3.09-2.27-2.19c-.41-.41-.17-1.09.38-1.17l3.13-.44,1.41-2.83c.26-.51.99-.49,1.22,0l1.41,2.83h0l3.13.44c.56.09.79.77.38,1.17ZM47.54,38.76c0,1.05-.86,1.9-1.92,1.9h-7.66c-1.06,0-1.92-.85-1.92-1.9v-3.79c0-1.05.86-1.9,1.92-1.9h7.66c1.06,0,1.92.85,1.92,1.9v3.79Z" style="fill:#fffcd9;"/></svg>