<?xml version="1.0" encoding="UTF-8"?>
<svg id="Layer_2" data-name="Layer 2" xmlns="http://www.w3.org/2000/svg" viewBox="0 0 83.35 74.59">
  <defs>
    <style>
      .cls-1 {
        fill: #fffcd9;
      }

      .cls-2 {
        fill: #a01d27;
      }
    </style>
  </defs>
  <g id="Layer_1-2" data-name="Layer 1">
    <g>
      <g id="white_shape" data-name="white shape">
        <path class="cls-1" d="M40.57,74.59l-.88-.49L1.74,51.39c-1.11-.67-1.74-1.86-1.74-3.27V3.75C0,1.32,1.8,0,3.49,0h76.38c1.69,0,3.49,1.32,3.49,3.75v44.36c0,1.44-.65,2.64-1.78,3.29l-39.19,23.18h-.94s-.87,0-.87,0Z"/>
        <path class="cls-2" d="M41.44,71.23s-.02,0-.02,0L3.46,48.51c-.06-.04-.1-.2-.1-.39V3.75c0-.22.06-.39.13-.39h76.38c.07,0,.13.18.13.39v44.36c0,.19-.04.35-.1.39l-38.42,22.72s-.02,0-.02,0Z"/>
      </g>
      <path class="cls-1" d="M35.56,20.59h4.28v3.63c0,1,.82,1.81,1.83,1.81s1.83-.81,1.83-1.81v-3.63h4.28c1.55,0,2.94.97,3.45,2.41l2.45,6.84c-.62-.12-1.27-.18-1.94-.18-3.41,0-6.42,1.68-8.25,4.24v-2.43c0-1-.82-1.81-1.83-1.81s-1.83.81-1.83,1.81v3.63c0,1,.82,1.81,1.83,1.81.13,0,.26-.02.39-.04-.26.88-.39,1.8-.39,2.76,0,.31.01.61.04.91h-.04c-1.01,0-1.83.81-1.83,1.81v3.63h-11.53c-1.72,0-3.13-1.39-3.13-3.09,0-.35.06-.7.18-1.03l6.75-18.85c.52-1.45,1.9-2.41,3.45-2.41ZM51.75,31.47c2.95,0,5.67,1.56,7.14,4.08,1.47,2.53,1.47,5.64,0,8.16-1.47,2.53-4.2,4.08-7.14,4.08s-5.67-1.56-7.14-4.08c-1.47-2.53-1.47-5.64,0-8.16,1.47-2.53,4.2-4.08,7.14-4.08ZM51.75,45.08c.76,0,1.37-.61,1.37-1.36s-.62-1.36-1.37-1.36-1.38.61-1.38,1.36.62,1.36,1.38,1.36ZM51.75,34.19c-.5,0-.92.41-.92.91v4.53c0,.5.41.91.92.91s.92-.41.92-.91v-4.53c0-.5-.41-.91-.92-.91Z"/>
    </g>
  </g>
</svg>