<?xml version="1.0" encoding="UTF-8"?>
<svg id="Layer_2" data-name="Layer 2" xmlns="http://www.w3.org/2000/svg" viewBox="0 0 41.43 48.79">
  <defs>
    <style>
      .cls-1 {
        fill: #fffcd9;
      }

      .cls-2 {
        fill: #a01d27;
      }
    </style>
  </defs>
  <g id="Layer_1-2" data-name="Layer 1">
    <g>
      <rect class="cls-1" width="41.43" height="48.79" rx="2.13" ry="2.13"/>
      <path class="cls-2" d="M9.22,24.39l1.71-13.51c.12-.95.93-1.66,1.9-1.66h10.09c.9,0,1.62.72,1.62,1.61,0,.19-.04.38-.1.56l-2.77,7.31h8.34c1.21,0,2.2.97,2.2,2.17,0,.44-.13.87-.38,1.23l-11.51,16.65c-.35.51-.93.81-1.55.81h-.17c-.94,0-1.71-.76-1.71-1.69,0-.14.02-.27.05-.41l2.81-11.18h-8.62c-1.06,0-1.92-.85-1.92-1.9Z"/>
    </g>
  </g>
</svg>