<?xml version="1.0" encoding="UTF-8"?>
<svg id="Layer_2" data-name="Layer 2" xmlns="http://www.w3.org/2000/svg" viewBox="0 0 80.36 89.55">
  <defs>
    <style>
      .cls-1 {
        fill: #cd3627;
      }

      .cls-2 {
        fill: #fff;
      }

      .cls-3 {
        fill: #f3e8d1;
      }
    </style>
  </defs>
  <g id="Layer_3" data-name="Layer 3">
    <g>
      <g id="white_shape" data-name="white shape">
        <path class="cls-3" d="M39.98,89.55c-.72,0-1.43-.09-2.13-.28-6.48-1.75-35.35-9.55-35.35-9.55l-.45-.12-.4-.24c-1.05-.64-1.65-1.78-1.65-3.14V13.44c0-1.94,1.18-3.14,2.51-3.5L37.82.29c.7-.19,1.43-.29,2.16-.29s1.44.09,2.14.28l35.72,9.65c1.33.36,2.52,1.56,2.52,3.51v62.77c0,1.37-.62,2.52-1.69,3.16l-.38.23-36.19,9.68c-.69.19-1.41.28-2.12.28Z"/>
        <path class="cls-1" d="M3.34,76.58c-.06-.03-.1-.19-.1-.37V13.44c0-.21.06-.38.12-.38L38.68,3.41c.85-.23,1.75-.23,2.6,0l35.72,9.65c.07,0,.12.17.12.38v62.77c0,.18-.04.34-.1.37l-35.76,9.56c-.84.23-1.72.23-2.57,0-6.48-1.75-35.35-9.55-35.35-9.55Z"/>
      </g>
      <path class="cls-2" d="M27.27,36.3l2.89.82c.27.08.46.33.46.6s-.19.53-.46.6l-2.89.82-.82,2.86c-.08.27-.33.46-.61.46s-.53-.18-.61-.46l-.82-2.86-2.89-.82c-.27-.08-.46-.33-.46-.6s.19-.53.46-.6l2.89-.82.82-2.86c.08-.27.33-.46.61-.46s.53.18.61.46l.82,2.86ZM40.18,29.2c1.06,0,1.91.85,1.91,1.89v12.31c0,.52.43.95.96.95s.96-.43.96-.95v-10.41c0-1.05.85-1.89,1.91-1.89s1.91.85,1.91,1.89v10.41c0,.52.43.95.96.95s.96-.43.96-.95v-6.63c0-1.05.86-1.89,1.91-1.89s1.91.85,1.91,1.89v11.54c-.71.28-1.27.88-1.49,1.64l-.53,1.85-1.87.53c-1.1.31-1.85,1.3-1.85,2.43s.75,2.11,1.83,2.42c-1.8,1.45-4.11,2.31-6.61,2.31h-1.15c-3.56,0-6.99-1.36-9.56-3.79l-6.72-6.33c-.96-.9-.99-2.4-.08-3.35.91-.95,2.43-.98,3.38-.08l3.62,3.41c0-.09,0-.18,0-.27v-16.1c0-1.05.85-1.89,1.91-1.89s1.91.85,1.91,1.89v10.41c0,.52.43.95.96.95s.96-.43.96-.95v-12.31c0-1.05.86-1.89,1.91-1.89ZM39.74,48.53c-.06-.23-.28-.39-.52-.39s-.46.16-.52.39l-.44,1.5-1.52.43c-.23.07-.39.28-.39.51s.16.45.39.52l1.52.43.44,1.5c.06.23.28.39.52.39s.46-.16.52-.39l.44-1.5,1.52-.43c.23-.07.39-.28.39-.52s-.16-.45-.39-.51l-1.52-.43-.44-1.5ZM55.96,53.35l2.89.82c.28.08.46.33.46.6s-.19.53-.46.6l-2.89.82-.83,2.86c-.08.27-.33.46-.61.46s-.53-.18-.61-.46l-.83-2.86-2.89-.82c-.28-.08-.46-.33-.46-.6s.19-.53.46-.6l2.89-.82.83-2.86c.08-.27.33-.46.61-.46s.53.18.61.46l.83,2.86Z"/>
    </g>
  </g>
</svg>