<?xml version="1.0" encoding="UTF-8"?>
<svg id="Layer_2" data-name="Layer 2" xmlns="http://www.w3.org/2000/svg" viewBox="0 0 41.44 50">
  <defs>
    <style>
      .cls-1 {
        fill: #1f2b45;
      }

      .cls-2 {
        fill: #fff;
      }
    </style>
  </defs>
  <g id="Layer_3" data-name="Layer 3">
    <g>
      <rect class="cls-2" width="41.44" height="50" rx="2.13" ry="2.13"/>
      <path class="cls-1" d="M11.14,12.21c0-1.05.86-1.9,1.92-1.9h15.33c1.06,0,1.92.85,1.92,1.9s-.86,1.9-1.92,1.9h-1.77l.68,8.78c2.2,1.18,3.93,3.15,4.76,5.61l.06.18c.2.58.1,1.21-.26,1.71s-.94.79-1.56.79H11.14c-.62,0-1.19-.29-1.56-.79s-.46-1.13-.26-1.71l.06-.18c.83-2.46,2.56-4.43,4.76-5.61l.68-8.78h-1.77c-1.06,0-1.92-.85-1.92-1.9ZM18.81,33.07h3.83v5.69c0,1.05-.86,1.9-1.92,1.9s-1.92-.85-1.92-1.9v-5.69Z"/>
    </g>
  </g>
</svg>