<?xml version="1.0" encoding="UTF-8"?><svg id="b" xmlns="http://www.w3.org/2000/svg" viewBox="0 0 150.42 43.75"><g id="c"><path d="M144.76,0H5.66C2.54,0,0,2.54,0,5.66v32.42c0,3.13,2.54,5.66,5.66,5.66h139.09c3.13,0,5.66-2.54,5.66-5.66V5.66c0-3.13-2.54-5.66-5.66-5.66ZM44.57,20.42l-5.08,4.97,1.2,7.03c.1.58-.15,1.16-.63,1.51-.48.35-1.12.39-1.65.11l-6.25-3.3-6.25,3.3c-.53.28-1.17.23-1.65-.11-.48-.34-.73-.93-.63-1.51l1.2-7.03-5.08-4.97c-.42-.41-.57-1.02-.39-1.58s.67-.96,1.25-1.05l7-1.02,3.13-6.38c.26-.53.8-.87,1.4-.87s1.15.34,1.4.87l3.13,6.38,7,1.02c.58.09,1.07.49,1.25,1.05.19.55.03,1.17-.39,1.58ZM87.61,20.42l-5.08,4.97,1.2,7.03c.1.58-.15,1.16-.63,1.51-.48.35-1.12.39-1.65.11l-6.25-3.3-6.25,3.3c-.53.28-1.17.23-1.65-.11-.48-.34-.73-.93-.63-1.51l1.2-7.03-5.08-4.97c-.42-.41-.57-1.02-.39-1.58s.67-.96,1.25-1.05l7-1.02,3.13-6.38c.26-.53.8-.87,1.4-.87s1.15.34,1.4.87l3.13,6.38,7,1.02c.58.09,1.07.49,1.25,1.05.19.55.03,1.17-.39,1.58ZM130.66,20.42l-5.08,4.97,1.2,7.03c.1.58-.15,1.16-.63,1.51-.48.35-1.12.39-1.65.11l-6.25-3.3-6.25,3.3c-.53.28-1.16.23-1.65-.11-.48-.34-.73-.93-.63-1.51l1.2-7.03-5.08-4.97c-.42-.41-.57-1.02-.39-1.58.18-.55.67-.96,1.25-1.05l7-1.02,3.13-6.38c.26-.53.8-.87,1.4-.87s1.15.34,1.4.87l3.13,6.38,7,1.02c.58.09,1.07.49,1.25,1.05.19.55.03,1.17-.39,1.58Z" style="fill:#042F47;"/></g></svg>