<?xml version="1.0" encoding="UTF-8"?><svg id="a" xmlns="http://www.w3.org/2000/svg" viewBox="0 0 2696.14 1735.27"><path d="M2637.63,888.67h-271.67c10.78-8.78,19.65-20.65,26.35-35.51,11.29-25.1,14.89-69.33,16.02-93.59h1.32l5.79-3.6c41.41-25.74,37.36-81.99,34.67-119.18l-.45-6.34c-.03-.4-.17-.78-.41-1.1l-3.83-5.07c-1.92-2.52-5.47-8.71-8.15-22.22-.03-.14-.04-.28-.04-.42,0-.64,0-1.39.02-2.22.11-8.46.32-25.82-3.66-54.08-.01-.11-.02-.22-.02-.33.09-4.8.26-9.74.47-14.75.88-19.92.61-39.18-.11-55.95-.05-1.06.73-1.98,1.79-2.13l28.86-4.25c18.94-2.79,32.7-17.4,32.7-34.73v-94.21c0-19.39-17.55-35.18-39.12-35.18h-41.67c-1.07,0-1.97-.78-2.09-1.84-2.36-21.52-5.67-52.35-5.67-52.35-2.99-27.5-14.15-43.16-33.2-46.48-.31-.06-.66-.12-1.11-.19-.88-.13-1.57-.8-1.73-1.66-4.19-21.85-16.78-44.98-41.58-49.98-52.14-10.49-443.63-26.92-496.47-26.92-3.14,0-5.4.04-7.13.13-40.27,2.27-81.25,40.56-96.16,74.71-3.06,7.01-9.43,21.62-14.78,190.34-2.14,66.91-3.28,133.3-3.7,159.68-.02,1.02-.78,1.87-1.8,2.02l-1.46.21V2.08c0-1.15-.94-2.08-2.1-2.08h-98.32c-1.16,0-2.1.93-2.1,2.08v151.45c0,1.67-1.88,2.65-3.27,1.71-9.36-6.29-20.65-9.95-32.79-9.95h-461.9c-12.12,0-23.4,3.66-32.77,9.95-1.4.94-3.27-.04-3.27-1.71V2.08c0-1.15-.94-2.08-2.1-2.08h-98.32c-1.16,0-2.1.93-2.1,2.08v576.09c0,1.31-1.21,2.29-2.51,2.04l-8.86-1.72c-.99-.19-1.7-1.05-1.7-2.04V178.82c.38-8.42,2.66-81.78-44.33-109.03-5.37-3.12-11.95-5.95-19.94-7.79-.13-.03-.27-.05-.4-.06-68.04-3.7-124.57-5.49-165.41-6.45-52.82-1.23-10.12-.55-151.87,1.29-104.11,1.35-132.52,14.29-142.92,24.99-18.16,15.38-23.13,39.54-24.3,55.68-.04.6-.35,1.13-.83,1.48-52.42,38.47-67.4,113.93-69.3,124.77,0,.05-.02.09-.03.14-.86,3.3-1.72,6.86-2.67,10.74l-.11.43c-.28,1.16-.58,2.43-.88,3.77-.29,1.27-1.67,2-2.87,1.47-4.92-2.2-10.36-3.41-16.1-3.41h-14.71c-22.92,0-41.5,18.39-41.5,41.08v78.68c0,11.48,5.05,21.82,13.07,28.97.71.64.92,1.65.49,2.49-3.55,6.92-6.36,14.39-8.03,22.33-2,9.67-4.81,30.81-8.53,64.33-.11.95-.84,1.71-1.79,1.84-34.68,4.75-92.13,24.79-106.81,103.87l-.3,1.78-.07,1.63c-.99,29.07-.75,47.77-.4,58.08.02.55-.19,1.06-.58,1.46-5.95,6.22-9.61,14.51-9.99,23.6l-2.08,51.01c-.65,16.02,5.11,31.23,16.23,42.86,11.12,11.6,26.14,18.1,42.3,18.32,1.5.02,3.03.03,4.62.06.97.02,1.81.67,2.03,1.61,3.23,13.97,8.61,32.42,16.98,48.79l1.21,2.35c.08.15.17.29.28.42l1.76,2.02c5.7,6.51,13.95,11.21,25.09,14.23H58.51c-32.26,0-58.51,25.98-58.51,57.92v483.31c0,27.65,19.9,51.55,47.31,56.85l1281.62,247.46c3.68.71,7.45,1.07,11.21,1.07h0c3.71,0,7.43-.35,11.07-1.05l1297.49-247.53c27.49-5.25,47.44-29.16,47.44-56.87v-483.25c0-31.94-26.25-57.92-58.51-57.92Z" style="fill:#fffcd9;"/><path id="b" d="M2637.32,917.9h-739.49c-21.05,0-40.05,12.5-48.19,31.72l-58.25,116.06c-5.06,11.96-16.88,19.73-29.98,19.73h-394.27s-38.78,0-38.78,0h-394.27c-13.1,0-24.91-7.78-29.98-19.73l-58.25-116.06c-8.14-19.22-27.14-31.72-48.19-31.72H58.2c-17.95,0-32.51,14.41-32.51,32.18v483.31c0,15.4,11.02,28.63,26.28,31.58l1281.63,247.47c4.09.79,8.29.79,12.38.01l1297.49-247.53c15.3-2.92,26.36-16.17,26.36-31.6v-483.25c0-17.77-14.55-32.18-32.51-32.18Z" style="fill:#2d455a;"/><path id="c" d="M1339.84,1685.14c-.28,0-.56-.03-.84-.08L57.37,1437.6c-2.03-.39-3.5-2.16-3.5-4.21v-483.31c0-2.37,1.94-4.29,4.33-4.29h739.49c9.73,0,18.44,5.74,22.21,14.62l.35.82,58.31,116.19c9.69,21.84,31.38,35.89,55.55,35.89h827.32c24.17,0,45.86-14.05,55.55-35.89l58.31-116.18.35-.83c3.76-8.88,12.48-14.62,22.2-14.62h739.49c2.39,0,4.33,1.92,4.33,4.29v483.25c0,2.05-1.48,3.82-3.52,4.21l-1297.49,247.53c-.27.05-.55.08-.82.08Z" style="fill:#fffcd9;"/><g id="d"><path d="M1897.84,960.8c-3.6,0-6.83,2.12-8.21,5.41l-.54,1.27-58.38,116.31c-12.16,27.07-39.31,44.53-69.28,44.53h-827.32c-29.95,0-57.1-17.46-69.28-44.51l-58.36-116.33-.54-1.27c-1.39-3.28-4.62-5.41-8.21-5.41H69.04v209.94h2557.45v-209.94h-728.65Z" style="fill:#a01d27;"/><polygon points="69.04 1424.56 1339.85 1669.93 2626.49 1424.47 2626.49 1400.72 69.04 1400.72 69.04 1424.56" style="fill:#a01d27;"/></g><g id="e"><path d="M171.34,1228.65c38.88,0,55.62,16.9,55.62,40.32,0,18.74-8.79,29.45-21.64,35.81l1.86,3.01c9.81,15.39,19.44,30.29,28.74,32.29v.84c-5.24,4.35-12.51,6.69-19.78,6.69-15.89,0-25.19-5.02-35.16-20.92l-8.96-14.05c-5.07.5-10.14.67-15.21.84.17,14.39,1.52,26.44,6.59,31.46v.84h-43.61v-.84c5.41-5.52,6.59-18.91,6.59-34.97v-45.51c0-15.9-1.18-29.45-6.59-34.97v-.84h51.56ZM195.35,1270.31c0-11.04-9.64-16.9-26.54-16.9h-12v38.15c18.6-.67,38.54-3.85,38.54-21.25Z" style="fill:#042f47;"/><path d="M286.79,1228.65v.84c-5.41,5.52-6.59,19.08-6.59,34.97v45.51c0,16.06,1.18,29.45,6.59,34.97v.84h-43.61v-.84c5.41-5.52,6.59-18.91,6.59-34.97v-45.51c0-15.9-1.18-29.45-6.59-34.97v-.84h43.61Z" style="fill:#042f47;"/><path d="M363.36,1226.81c12.17,0,18.93,2.68,22.31,2.68s6.76,0,9.3-1.51l.85.34c1.18,13.05,1.35,26.27,2.54,39.32l-.85.34c-8.45-10.54-21.64-15.9-34.15-15.9-17.58,0-33.98,10.88-34.15,35.14.17,24.09,16.4,35.14,34.15,35.14,19.78,0,32.79-8.03,40.57-21.08l.84.17-6.76,41.16c-10.48,3.01-23.83,5.02-34.65,5.02h-2.2c-34.48,0-63.39-18.41-63.39-59.9v-.84c0-41.66,28.91-60.07,63.39-60.07h2.2Z" style="fill:#042f47;"/><path d="M464.11,1301.77l-11.33,13.39c.34,13.72,1.69,24.93,6.59,29.78v.84h-43.61v-.84c5.41-5.52,6.59-18.91,6.59-34.97v-45.51c0-15.9-1.18-29.45-6.59-34.97v-.84h43.61v.84c-5.41,5.52-6.59,19.08-6.59,34.97v11.54l21.98-26.1c2.7-3.68,9.13-11.55,9.13-15.73,0-2.51-.84-3.51-1.69-4.68v-.84h43.78v.84c-2.7,2.17-5.41,5.19-7.94,8.03l-32.12,38.15,20.29,32.13c9.8,15.39,19.44,30.29,28.74,32.29v.84c-5.75,5.02-13.35,6.69-19.61,6.69-16.06,0-25.36-5.02-35.33-20.92l-15.89-24.93Z" style="fill:#042f47;"/><path d="M578.04,1306.29l-33.64-65.59c-2.03-3.68-6.09-9.54-9.47-11.21v-.84h42.43v.84c-1.01,1.17-1.35,2.51-1.35,3.85,0,2.51,1.35,5.19,2.54,7.36l14.71,28.78,14.88-28.78c1.18-2.17,2.54-4.85,2.54-7.36,0-1.34-.34-2.68-1.35-3.85v-.84h42.43v.84c-3.38,1.67-7.61,7.53-9.47,11.21l-33.81,65.59v3.68c0,16.06,1.18,29.45,6.59,34.97v.84h-43.61v-.84c5.58-5.52,6.59-18.91,6.59-34.97v-3.68Z" style="fill:#042f47;"/><path d="M725.1,1345.78v-.84c5.58-5.52,6.59-18.91,6.59-34.97v-55.72c-14.37,0-25.53.17-35.16,8.03l-.85-.17,6.09-35.64.84-.34c5.75,2.51,20.29,2.51,34.82,2.51h18.93c14.54,0,29.08,0,34.99-2.51l.85.34,6.09,35.64-.85.17c-9.64-7.86-20.96-8.03-35.33-8.03v55.72c0,16.06,1.18,29.45,6.59,34.97v.84h-43.61Z" style="fill:#042f47;"/><path d="M859.14,1228.65c38.88,0,55.62,16.9,55.62,40.32,0,18.74-8.79,29.45-21.64,35.81l1.86,3.01c9.8,15.39,19.44,30.29,28.74,32.29v.84c-5.24,4.35-12.51,6.69-19.78,6.69-15.89,0-25.19-5.02-35.16-20.92l-8.96-14.05c-5.07.5-10.14.67-15.21.84.17,14.39,1.52,26.44,6.59,31.46v.84h-43.61v-.84c5.41-5.52,6.59-18.91,6.59-34.97v-45.51c0-15.9-1.18-29.45-6.59-34.97v-.84h51.56ZM883.15,1270.31c0-11.04-9.63-16.9-26.54-16.9h-12v38.15c18.59-.67,38.54-3.85,38.54-21.25Z" style="fill:#042f47;"/><path d="M970.37,1228.65v.84c-5.41,5.52-6.59,19.08-6.59,34.97v32.96c0,14.72,8.96,22.76,21.98,22.92,13.02-.17,21.98-8.2,21.98-22.92v-32.96c0-15.9-1.01-29.45-6.59-34.97v-.84h43.61v.84c-5.41,5.52-6.59,19.08-6.59,34.97v32.96c0,30.96-16.23,50.2-52.4,50.2s-52.4-19.24-52.4-50.2v-32.96c0-15.9-1.18-29.45-6.59-34.97v-.84h43.61Z" style="fill:#042f47;"/><path d="M1119.63,1226.81c12.17,0,18.93,2.68,22.31,2.68s6.76,0,9.3-1.51l.85.34c1.18,13.05,1.35,26.27,2.54,39.32l-.85.34c-8.45-10.54-21.64-15.9-34.15-15.9-17.58,0-33.98,10.88-34.15,35.14.17,24.09,16.4,35.14,34.15,35.14,19.78,0,32.79-8.03,40.57-21.08l.84.17-6.76,41.16c-10.48,3.01-23.83,5.02-34.65,5.02h-2.2c-34.48,0-63.39-18.41-63.39-59.9v-.84c0-41.66,28.91-60.07,63.39-60.07h2.2Z" style="fill:#042f47;"/><path d="M1220.37,1301.77l-11.33,13.39c.34,13.72,1.69,24.93,6.59,29.78v.84h-43.61v-.84c5.41-5.52,6.59-18.91,6.59-34.97v-45.51c0-15.9-1.18-29.45-6.59-34.97v-.84h43.61v.84c-5.41,5.52-6.59,19.08-6.59,34.97v11.54l21.98-26.1c2.7-3.68,9.13-11.55,9.13-15.73,0-2.51-.84-3.51-1.69-4.68v-.84h43.78v.84c-2.7,2.17-5.41,5.19-7.95,8.03l-32.12,38.15,20.29,32.13c9.8,15.39,19.44,30.29,28.74,32.29v.84c-5.75,5.02-13.35,6.69-19.61,6.69-16.06,0-25.36-5.02-35.33-20.92l-15.89-24.93Z" style="fill:#042f47;"/><path d="M1341.57,1228.65v.84c-5.41,5.52-6.59,19.08-6.59,34.97v45.51c0,16.06,1.18,29.45,6.59,34.97v.84h-43.61v-.84c5.41-5.52,6.59-18.91,6.59-34.97v-45.51c0-15.9-1.19-29.45-6.59-34.97v-.84h43.61Z" style="fill:#042f47;"/><path d="M1394.31,1228.65v.84c-.17.5-.17,1.17-.17,1.67,0,5.02,6.26,12.88,8.28,15.9l32.29,45.51v-28.11c0-15.9-1.18-29.45-6.59-34.97v-.84h43.61v.84c-5.41,5.52-6.59,19.08-6.59,34.97v45.51c0,16.06,1.18,29.45,6.59,34.97v.84h-40.74v-.84c.17-.5.17-1.17.17-1.67,0-5.02-6.25-12.88-8.28-15.9l-32.46-45.85v28.45c0,16.06,1.18,29.45,6.59,34.97v.84h-43.61v-.84c5.41-5.52,6.59-18.91,6.59-34.97v-45.51c0-15.9-1.19-29.45-6.59-34.97v-.84h40.91Z" style="fill:#042f47;"/><path d="M1591.91,1308.63c0,16.56.68,20.41,4.06,24.43v.84c-17.41,9.37-34.99,13.72-52.74,13.72-36.85,0-60.35-21.25-60.52-57.73,0-43.84,29.75-63.08,63.56-63.08h2.03c12.85,0,20.79,2.51,24.17,2.51s6.76,0,9.3-1.51l.85.17c1.18,13.05,2.2,26.1,3.38,39.15l-.84.33c-8.45-10.54-24.68-15.56-35.16-15.56-22.48,0-35.84,14.22-35.84,37.98,0,21.08,13.35,32.63,33.13,32.63,7.27,0,12.85-2.01,14.2-2.68v-22.42c-7.1,0-15.55,2.84-20.29,8.37l-.84-.34v-29.45h55.62v.84c-3.38,4.01-4.06,7.86-4.06,24.26v7.53Z" style="fill:#042f47;"/><path d="M1650.05,1301.27c8.62,10.88,30.6,21.08,52.4,21.08,7.95,0,13.69-2.18,13.69-8.03v-.84c0-8.53-15.21-11.38-33.13-16.73-17.92-5.35-32.12-13.89-32.12-34.47v-1.67c0-29.45,26.71-33.8,47.67-33.8,10.82,0,22.99,2.51,28.74,2.51,3.38,0,6.76,0,9.3-1.51l.85.17c1.18,13.05,2.37,26.1,3.38,39.15l-.68.33c-7.61-9.37-27.55-15.39-41.76-15.39-9.13,0-16.06,2.01-16.06,7.36,0,7.03,9.47,8.53,20.79,11.88,19.95,5.86,44.46,10.88,44.46,39.49v1.67c0,27.44-23.5,35.14-46.82,35.14-20.96,0-31.1-6.02-38.37-6.02-2.7,0-6.08,1-7.78,2.68l-.85-.17-4.56-42.67.84-.17Z" style="fill:#042f47;"/><path d="M1886.54,1287.72c0,41.5-28.9,59.9-63.22,59.9h-2.2c-34.49,0-63.39-18.41-63.39-59.9v-.84c0-41.66,28.91-60.07,63.39-60.07h2.2c34.32,0,63.22,18.41,63.22,60.07v.84ZM1821.12,1322.35h2.2c19.27,0,31.61-14.22,31.78-35.14-.17-20.75-12.51-35.14-31.78-35.14h-2.2c-19.44,0-31.78,14.39-31.95,35.14.17,20.91,12.51,35.14,31.95,35.14Z" style="fill:#042f47;"/><path d="M1941.98,1228.65v.84c-5.41,5.52-6.59,19.08-6.59,34.97v55.72h20.96c14.88,0,26.37,0,36.17-8.03l.85.17-6.26,35.64-.84.34c-5.24-2.17-17.75-2.51-30.77-2.51h-57.14v-.84c5.41-5.52,6.59-18.91,6.59-34.97v-45.51c0-15.9-1.18-29.45-6.59-34.97v-.84h43.61Z" style="fill:#042f47;"/><path d="M2044.58,1228.65v.84c-5.41,5.52-6.59,19.08-6.59,34.97v32.96c0,14.72,8.96,22.76,21.98,22.92,13.02-.17,21.98-8.2,21.98-22.92v-32.96c0-15.9-1.01-29.45-6.59-34.97v-.84h43.61v.84c-5.41,5.52-6.59,19.08-6.59,34.97v32.96c0,30.96-16.23,50.2-52.4,50.2s-52.4-19.24-52.4-50.2v-32.96c0-15.9-1.18-29.45-6.59-34.97v-.84h43.61Z" style="fill:#042f47;"/><path d="M2156.82,1345.78v-.84c5.58-5.52,6.59-18.91,6.59-34.97v-55.72c-14.37,0-25.53.17-35.16,8.03l-.84-.17,6.08-35.64.85-.34c5.75,2.51,20.29,2.51,34.82,2.51h18.93c14.54,0,29.07,0,34.99-2.51l.85.34,6.08,35.64-.84.17c-9.64-7.86-20.96-8.03-35.33-8.03v55.72c0,16.06,1.18,29.45,6.59,34.97v.84h-43.61Z" style="fill:#042f47;"/><path d="M2282.92,1228.65v.84c-5.41,5.52-6.59,19.08-6.59,34.97v45.51c0,16.06,1.18,29.45,6.59,34.97v.84h-43.61v-.84c5.41-5.52,6.59-18.91,6.59-34.97v-45.51c0-15.9-1.18-29.45-6.59-34.97v-.84h43.61Z" style="fill:#042f47;"/><path d="M2423.56,1287.72c0,41.5-28.9,59.9-63.22,59.9h-2.2c-34.49,0-63.39-18.41-63.39-59.9v-.84c0-41.66,28.9-60.07,63.39-60.07h2.2c34.32,0,63.22,18.41,63.22,60.07v.84ZM2358.14,1322.35h2.2c19.27,0,31.61-14.22,31.78-35.14-.17-20.75-12.51-35.14-31.78-35.14h-2.2c-19.44,0-31.78,14.39-31.95,35.14.17,20.91,12.51,35.14,31.95,35.14Z" style="fill:#042f47;"/><path d="M2476.29,1228.65v.84c-.17.5-.17,1.17-.17,1.67,0,5.02,6.26,12.88,8.28,15.9l32.29,45.51v-28.11c0-15.9-1.18-29.45-6.59-34.97v-.84h43.61v.84c-5.41,5.52-6.59,19.08-6.59,34.97v45.51c0,16.06,1.18,29.45,6.59,34.97v.84h-40.74v-.84c.17-.5.17-1.17.17-1.67,0-5.02-6.25-12.88-8.28-15.9l-32.46-45.85v28.45c0,16.06,1.18,29.45,6.59,34.97v.84h-43.61v-.84c5.41-5.52,6.59-18.91,6.59-34.97v-45.51c0-15.9-1.18-29.45-6.59-34.97v-.84h40.91Z" style="fill:#042f47;"/></g><g id="f"><polygon points="415 1051.53 438.16 1039.49 433.73 1065 452.47 1083.08 426.58 1086.8 415 1110.02 403.43 1086.8 377.54 1083.08 396.27 1065 391.85 1039.49 415 1051.53" style="fill:#fffcd9;"/><polygon points="533.02 1055.22 552.5 1045.09 548.78 1066.55 564.54 1081.75 542.76 1084.89 533.02 1104.42 523.29 1084.89 501.51 1081.75 517.27 1066.55 513.55 1045.09 533.02 1055.22" style="fill:#fffcd9;"/><polygon points="296.98 1055.22 316.46 1045.09 312.74 1066.55 328.5 1081.75 306.72 1084.89 296.98 1104.42 287.25 1084.89 265.47 1081.75 281.23 1066.55 277.51 1045.09 296.98 1055.22" style="fill:#fffcd9;"/></g><g id="g"><polygon points="2274.31 1051.53 2297.46 1039.49 2293.04 1065 2311.77 1083.08 2285.88 1086.8 2274.31 1110.02 2262.73 1086.8 2236.84 1083.08 2255.58 1065 2251.15 1039.49 2274.31 1051.53" style="fill:#fff;"/><polygon points="2392.33 1055.22 2411.8 1045.09 2408.08 1066.55 2423.84 1081.75 2402.06 1084.89 2392.33 1104.42 2382.59 1084.89 2360.81 1081.75 2376.57 1066.55 2372.85 1045.09 2392.33 1055.22" style="fill:#fff;"/><polygon points="2156.29 1055.22 2175.76 1045.09 2172.04 1066.55 2187.8 1081.75 2166.02 1084.89 2156.29 1104.42 2146.55 1084.89 2124.77 1081.75 2140.53 1066.55 2136.81 1045.09 2156.29 1055.22" style="fill:#fff;"/></g><g id="h"><path d="M1110.08,1551.8c-.96-.98-1.44-2.29-1.44-3.94v-36.3c0-1.65.48-2.95,1.44-3.9.96-.95,2.28-1.43,3.94-1.43h25.82c.26.41.49.95.7,1.62.21.67.31,1.42.31,2.24,0,1.34-.31,2.37-.94,3.09-.62.72-1.48,1.08-2.57,1.08h-18.88v10.97h19.04c.26.41.51.94.74,1.58.23.64.35,1.38.35,2.2,0,2.78-1.2,4.17-3.59,4.17h-16.54v11.97h21.69c.26.41.51.97.74,1.66.23.69.35,1.45.35,2.28,0,2.78-1.2,4.17-3.59,4.17h-23.64c-1.66,0-2.98-.49-3.94-1.47Z" style="fill:#fffcd9;"/><path d="M1180.26,1546.09c3.02,0,5.23-.58,6.63-1.74,1.4-1.16,2.11-2.61,2.11-4.36,0-1.59-.55-2.87-1.64-3.82-1.09-.95-2.76-1.76-4.99-2.43l-4.99-1.54c-1.98-.62-3.77-1.31-5.38-2.08-1.61-.77-2.99-1.69-4.14-2.74-1.14-1.06-2.03-2.29-2.65-3.71-.62-1.41-.94-3.1-.94-5.06,0-4.17,1.59-7.48,4.76-9.92,3.17-2.44,7.52-3.67,13.03-3.67,2.18,0,4.2.17,6.05.5,1.85.34,3.44.8,4.8,1.39,1.35.59,2.41,1.33,3.16,2.2.75.88,1.13,1.85,1.13,2.93s-.25,1.92-.74,2.66c-.49.75-1.1,1.35-1.83,1.81-1.25-.87-2.9-1.63-4.95-2.28-2.05-.64-4.3-.97-6.75-.97-2.71,0-4.76.48-6.16,1.43-1.4.95-2.11,2.25-2.11,3.9,0,1.34.48,2.37,1.44,3.09.96.72,2.48,1.42,4.56,2.09l4.45,1.39c4.52,1.34,8.04,3.17,10.53,5.48,2.5,2.31,3.74,5.46,3.74,9.42,0,2.11-.42,4.04-1.25,5.79-.83,1.75-2.04,3.26-3.63,4.52-1.59,1.26-3.56,2.24-5.93,2.93-2.37.7-5.06,1.04-8.07,1.04-2.39,0-4.59-.21-6.59-.62-2-.41-3.73-.97-5.19-1.66-1.46-.69-2.59-1.52-3.39-2.47-.81-.95-1.21-1.99-1.21-3.13s.35-2.2,1.05-3.05c.7-.85,1.52-1.48,2.46-1.89,1.3,1.13,3.02,2.18,5.15,3.13,2.13.95,4.63,1.43,7.49,1.43Z" style="fill:#fffcd9;"/><path d="M1256.91,1507.9c.23.7.35,1.46.35,2.28,0,1.39-.32,2.44-.97,3.17-.65.72-1.55,1.08-2.69,1.08h-10.77v38.61c-.42.1-1.07.23-1.95.39-.88.16-1.79.23-2.73.23-1.98,0-3.38-.36-4.21-1.08s-1.25-1.93-1.25-3.63v-34.52h-13.11c-.26-.46-.51-1.03-.74-1.7-.23-.67-.35-1.42-.35-2.24,0-1.44.32-2.51.98-3.21.65-.7,1.55-1.04,2.69-1.04h34.01c.26.41.51.96.74,1.66Z" style="fill:#fffcd9;"/><path d="M1322.56,1529.41c0,4.17-.61,7.81-1.83,10.93-1.22,3.12-2.95,5.69-5.19,7.72-2.24,2.04-4.93,3.57-8.08,4.6-3.15,1.03-6.64,1.54-10.49,1.54-.88,0-1.85-.01-2.89-.04-1.04-.03-2.12-.1-3.24-.23-1.12-.13-2.24-.3-3.35-.5-1.12-.21-2.17-.49-3.16-.85-2.5-.93-3.74-2.47-3.74-4.63v-37.84c0-.93.26-1.65.78-2.16s1.25-.93,2.19-1.24c1.92-.67,4.02-1.09,6.28-1.28,2.26-.18,4.41-.27,6.44-.27,3.9,0,7.48.5,10.73,1.51,3.25,1.01,6.02,2.51,8.31,4.52,2.29,2.01,4.07,4.53,5.34,7.57,1.27,3.04,1.91,6.59,1.91,10.66ZM1312.19,1529.49c0-2.78-.39-5.19-1.17-7.22-.78-2.03-1.86-3.71-3.24-5.02-1.38-1.31-3.02-2.29-4.92-2.93s-3.97-.97-6.2-.97c-1.2,0-2.28.04-3.24.12-.96.08-1.89.17-2.77.27v31.74c.88.21,1.89.35,3,.43,1.12.08,2.22.12,3.32.12,4.84,0,8.58-1.39,11.24-4.17,2.65-2.78,3.98-6.9,3.98-12.36Z" style="fill:#fffcd9;"/><path d="M1377.41,1512.03c0-1.03.34-1.97,1.01-2.82.68-.85,1.61-1.58,2.81-2.2,1.2-.62,2.64-1.09,4.33-1.43,1.69-.33,3.52-.5,5.5-.5,2.81,0,5.29.35,7.45,1.04,2.16.7,3.98,1.66,5.46,2.9,1.48,1.23,2.6,2.7,3.35,4.4.75,1.7,1.13,3.58,1.13,5.64,0,2.78-.77,5.48-2.3,8.11-1.53,2.62-4.07,5.43-7.61,8.42l-11.39,9.81h20.91c.26.41.5.95.7,1.62.21.67.31,1.39.31,2.16,0,1.34-.31,2.33-.94,2.97-.62.65-1.48.97-2.57.97h-27.31c-.83-.57-1.48-1.29-1.95-2.16-.47-.88-.7-1.9-.7-3.09,0-1.29.27-2.39.82-3.32.55-.93,1.18-1.72,1.91-2.39l12.4-11.2c2.91-2.57,4.92-4.72,6.01-6.45,1.09-1.72,1.64-3.41,1.64-5.06,0-1.9-.7-3.45-2.11-4.63-1.41-1.18-3.46-1.77-6.16-1.77-2.19,0-4.14.35-5.85,1.04-1.72.7-3.15,1.46-4.29,2.28-.73-.41-1.34-.98-1.83-1.7-.5-.72-.74-1.6-.74-2.63Z" style="fill:#fffcd9;"/><path d="M1451.37,1554.28c-2.91,0-5.58-.52-8-1.54-2.42-1.03-4.5-2.56-6.24-4.6-1.74-2.03-3.09-4.59-4.06-7.68-.96-3.09-1.44-6.69-1.44-10.81s.52-7.8,1.56-10.89c1.04-3.09,2.44-5.65,4.21-7.68,1.77-2.03,3.85-3.54,6.24-4.52,2.39-.98,4.97-1.47,7.72-1.47s5.33.5,7.72,1.5c2.39,1.01,4.49,2.51,6.28,4.52,1.79,2.01,3.21,4.56,4.25,7.65,1.04,3.09,1.56,6.72,1.56,10.89s-.48,7.71-1.44,10.77c-.96,3.06-2.33,5.62-4.1,7.68-1.77,2.06-3.86,3.6-6.28,4.63-2.42,1.03-5.08,1.54-8,1.54ZM1461.2,1529.64c0-5.66-.92-9.85-2.77-12.55-1.85-2.7-4.2-4.05-7.06-4.05s-5.2,1.36-7.02,4.09c-1.82,2.73-2.73,6.9-2.73,12.51s.84,9.67,2.54,12.47c1.69,2.81,4.1,4.21,7.22,4.21s5.54-1.4,7.25-4.21c1.72-2.8,2.58-6.96,2.58-12.47Z" style="fill:#fffcd9;"/><path d="M1494.2,1512.03c0-1.03.34-1.97,1.01-2.82.68-.85,1.61-1.58,2.81-2.2s2.64-1.09,4.33-1.43c1.69-.33,3.52-.5,5.5-.5,2.81,0,5.29.35,7.45,1.04,2.16.7,3.98,1.66,5.46,2.9,1.48,1.23,2.6,2.7,3.35,4.4.75,1.7,1.13,3.58,1.13,5.64,0,2.78-.77,5.48-2.3,8.11-1.53,2.62-4.07,5.43-7.61,8.42l-11.39,9.81h20.91c.26.41.49.95.7,1.62.21.67.31,1.39.31,2.16,0,1.34-.31,2.33-.94,2.97-.62.65-1.48.97-2.57.97h-27.31c-.83-.57-1.48-1.29-1.95-2.16-.47-.88-.7-1.9-.7-3.09,0-1.29.27-2.39.82-3.32.55-.93,1.18-1.72,1.91-2.39l12.41-11.2c2.91-2.57,4.91-4.72,6.01-6.45,1.09-1.72,1.64-3.41,1.64-5.06,0-1.9-.7-3.45-2.11-4.63-1.4-1.18-3.46-1.77-6.16-1.77-2.18,0-4.14.35-5.85,1.04-1.72.7-3.15,1.46-4.29,2.28-.73-.41-1.34-.98-1.83-1.7-.5-.72-.74-1.6-.74-2.63Z" style="fill:#fffcd9;"/><path d="M1552.63,1507.63c.94-.98,2.23-1.47,3.9-1.47h23.17c.26.41.51.95.74,1.62.23.67.35,1.42.35,2.24,0,1.34-.33,2.37-.98,3.09-.65.72-1.52,1.08-2.61,1.08h-17.4l-.94,10.42c.94-.36,2.05-.7,3.35-1,1.3-.31,2.78-.46,4.45-.46,2.5,0,4.75.36,6.75,1.08,2,.72,3.71,1.75,5.11,3.09,1.4,1.34,2.48,2.95,3.24,4.83.75,1.88,1.13,3.95,1.13,6.22s-.39,4.21-1.17,6.14c-.78,1.93-1.94,3.62-3.47,5.06-1.54,1.44-3.47,2.59-5.81,3.44-2.34.85-5.07,1.27-8.19,1.27-2.34,0-4.46-.19-6.36-.58-1.9-.39-3.52-.91-4.88-1.58s-2.39-1.45-3.12-2.36c-.73-.9-1.09-1.89-1.09-2.97s.34-2.1,1.02-2.9c.68-.8,1.43-1.4,2.26-1.82,1.3,1.03,2.87,2.01,4.72,2.93,1.85.93,4.17,1.39,6.98,1.39,2.96,0,5.21-.76,6.75-2.28,1.53-1.52,2.3-3.44,2.3-5.75s-.74-4.14-2.22-5.48c-1.48-1.34-3.6-2.01-6.36-2.01-1.61,0-3.03.22-4.25.66-1.22.44-2.43.99-3.63,1.66-1.98-.1-3.56-.66-4.76-1.66-1.2-1.01-1.79-2.48-1.79-4.44,0-.26.01-.55.04-.89.03-.34.07-.81.12-1.43l1.09-13.21c.1-1.65.62-2.96,1.56-3.94Z" style="fill:#fffcd9;"/></g><g id="i"><g id="j"><path d="M576.26,480.82h-247.96c-11.01,0-20.1,8.52-20.69,19.4l-7.51,136.64c-.31,5.69,1.69,11.09,5.65,15.23,3.96,4.13,9.3,6.41,15.05,6.41h256.28c5.56,0,10.78-2.15,14.7-6.05,3.92-3.9,6.06-9.08,6.03-14.59l-.81-136.64c-.07-11.25-9.37-20.4-20.73-20.4ZM374.3,486.88h19.78l-4.96,165.56h-19.78l4.96-165.56ZM363.22,652.44h-19.78l4.96-165.56h19.78l-4.96,165.56ZM400.21,486.88h19.78l-4.96,165.56h-19.78l4.96-165.56ZM426.11,486.88h19.78l-4.96,165.56h-19.78l4.96-165.56ZM452.02,486.88h22.01l-4.96,165.56h-22.01l4.96-165.56ZM480.15,486.88h22.01l-4.96,165.56h-22.01l4.96-165.56ZM508.29,486.88h22.06l-2.48,165.56h-24.54l4.96-165.56ZM536.47,486.88h22.06v165.56h-24.55l2.48-165.56ZM310.19,647.92c-2.79-2.91-4.2-6.73-3.98-10.73l7.51-136.64c.42-7.67,6.83-13.67,14.59-13.67h13.97l-4.96,165.56h-16.52c-4.05,0-7.82-1.6-10.61-4.52ZM591.68,637.89c.02,3.88-1.48,7.53-4.25,10.28-2.76,2.75-6.44,4.26-10.36,4.26h-12.42v-165.56h11.61c8.01,0,14.56,6.45,14.61,14.38l.81,136.64Z" style="fill:#042f47;"/><path d="M219.93,802.23c2.27,12.39,7.5,35.72,17.45,55.15,10.71,12.24,53.54,11.73,82.61,7.69,25.14-3.49,31.2-50.01,30.4-62.84h-130.46Z" style="fill:#042f47;"/><path d="M845.95,778.32c.6,27.28-10.99,51.81-27.07,56-14.36,3.74-27.66-9.96-32.82-31.82-8.48,2.57-16.21,4.27-21.92,4.27h-94.59s8.41,54.77,35.95,63.35c27.54,8.58,81.08,5.55,113.21-3.53,32.13-9.09,38.76-50.48,33.15-90.86-.72.24-2.88,1.21-5.91,2.59Z" style="fill:#042f47;"/><path d="M976.4,616.5v-12.18l-72.75-14.09v-8.72l29.68,5.67V177.2c0-58.44-7.76-86.97-46.15-93.1.46-.17.94-.36,1.39-.52-46.42-8.06-196.06-6.32-313.04-4.81-116.99,1.51-126.58,18.37-126.58,18.37-20.33,15.69-17.27,52.53-17.27,52.54,0,0,0,0,0,0-57.37,31.55-70.48,117.33-70.48,117.33,0,0,0,0,0,0-.95,3.62-1.91,7.57-2.96,11.9-6.12,25.24-18.36,94.39-19.38,103.48,0,0-.19,5.9-4.59,11.1,0,0-39.27,25.74-46.4,60.07-2.53,12.18-6.48,45.61-10.52,83.66-21.51-.63-91.29,3.8-106.51,85.84-1.52,44.33-.06,64.12,0,64.94l.22,2.8h112.91s343.39,0,343.39,0c7.78.33,15.48.48,23.04.48,60.48,0,111.71-9.51,112.29-9.62l1.89-.36.5-1.84c.28-1.02,27.76-102.45,68.37-136.52l5.65-4.74-7.38-.59c-44.27-3.53-79.39,4.32-107.18,18,2.21-42.12,19.07-121.94,92.66-149.46-131.22,15.7-135.06,154.6-134.73,178.79-30.78,29.16-46.23,64.55-53.14,85.13h-343.69c4.44-55.11,16.52-201.51,19.83-206.43,10.3-1.46,264.92.71,307.3-2.84l11.07,178.61s5.76-122.03,9.58-146.26c3.82-24.22,30.51-50.45,52.93-61.7,28.6-14.05,54.36-27.89,54.36-27.89,0,0-91.03,36.34-122.39,39.07-31.36,2.73-227.44.8-305.97,0,1.12-5.08,9.36-20.53,18.34-27.95,132.45,12.63,327.92-6.9,393.69-17.18-218.94,9.95-341.45.82-378.19-2.75,1.05-3.07,2.14-6.9,2.44-10.22,63.66,6.21,417.94,2.64,447.13-2.17,22.18-3.79,15.81-29.78,14.79-46.44-1.02-16.66-3.57-75.21-6.12-86.31-2.55-11.1-11.73-16.66-46.41-16.15-34.68.5-261.89,6.31-325.6,5.55,0,0-14.56.24-28.35.52.65-3.14,1.63-7.45,3.02-12.55,55.2-1.11,275.45-2.86,275.45-2.86l-271.98-8.58c1.35-4.04,2.9-8.29,4.69-12.62h311.66l-307.05-10.18c2.06-4.16,4.35-8.29,6.89-12.28h287.41l-281.83-7.98c5.01-6.5,10.79-12.31,17.47-16.79,6.39,1.87,14,3.86,22.08,5.45h280.34c68.47-13.62,122.76-30.23,136.93-27.13-35.15,3.08-91.33,34.98-118.4,90.87,11.22,1.01,24.99,2.52,24.99,2.52,0,0,42.76-73.27,96.56-91.67.12.18.26.35.33.56,1.39,3.77,1.95,56.29,2.09,123.97l-38.69-10.06c-12.48-3.25-24.68,6.08-24.66,18.85l.17,140.44c.01,11.02,9.25,19.83,20.38,19.43l42.55-1.53c0,2.53-.02,5.05-.03,7.55-87.87-3.87-123.31,41.81-153.77,101.81,41.47-19.41,80.87-19.69,110.2-14.98l-1.07,58.03v194.02l10.2-3.22,9.37-3.37.57-54.18,2.09-.41c2.03-8.01,5.19-15.58,9.28-22.55l-12.14,1v-32.56l47.1-1.88c12.42-6.58,26.6-10.33,41.65-10.33h18.45v-3.12l-108.73-8.9v-24.28l108.73,6.46ZM767.94,649.46c-8.43,5.88-29.96,18.39-59.32,17.23-38.25-1.51-28.56-28.27-13.26-55.52,13.77-24.53,54.4-56.75,114.07-68.32,4.8-.03,9.71.07,14.75.34-25.93,25.78-45.62,74.96-56.24,106.28ZM216.52,588.56c13.66-28.42,44.4-40.06,60.07-44.28-5.52,52.66-11.07,112.04-13.25,135.83l-49.41-1.31c-4.18-17.34-12-59.87,2.59-90.23ZM437.76,255.52c59.29.61,270.75-4.06,303.02-4.47,32.27-.41,40.81,4.06,43.19,12.99,2.37,8.93,4.75,56.01,5.69,69.41.95,13.39,6.88,34.3-13.76,37.34-29.9,4.26-426.17,7.31-425.22,0,.95-7.31,12.34-62.91,18.03-83.21,5.7-20.29,8.54-30.85,22.78-31.25,10.14-.29,46.27-.81,46.27-.81ZM856.04,406.78c-3.78.14-6.92-2.86-6.92-6.6l-.16-126.41c0-4.34,4.14-7.51,8.38-6.4l37.43,9.73c0,3.14,0,6.31,0,9.51-7.86-1.82-21.71-5.17-29.32-7.02-2.74-.67-5.36,1.41-5.33,4.21l.94,105.68c.02,2.26,1.81,4.12,4.09,4.24l29.45,1.59c-.01,3.38-.02,6.74-.03,10.09l-38.53,1.38Z" style="fill:#042f47;"/><path d="M263.44,569.66s-62.98,21.59-35.06,109.03c-1.91-44.3,12.31-81.52,35.06-109.03Z" style="fill:#042f47;"/><path d="M710.66,651.8s26.01-82.53,85.67-97.67c-48.21,10.33-88.73,37.1-85.67,97.67Z" style="fill:#042f47;"/><path d="M204.67,729.66c-10.07,5.89-6.63,26.63-.76,32.43,5.86,5.8,13,2.27,14.28-1.26-3.31,2.27-11.73,3.66-14.15-8.96-2.42-12.62,1.31-19.34,5.42-20.66,5.9-1.9,12.81,2.11,12.81,2.11,0,0-7.52-9.55-17.59-3.66Z" style="fill:#042f47;"/><path d="M757.01,799.83c46.41-1.01,80.57-23.22,80.57-23.22v-97.92s-68.33,17.16-143.8,20.19c-68,2.73-446.47-3.56-520.75-4.83-7.04-.12-12.88,5.35-13.16,12.31l-2.09,51.02c-.81,19.8,15,36.36,35.02,36.62,124.22,1.61,525.05,6.69,564.21,5.83ZM211.64,771.17c-10.26,0-18.58-11.41-18.58-25.49s8.32-25.49,18.58-25.49,18.58,11.41,18.58,25.49-8.32,25.49-18.58,25.49ZM654.56,778.19c-12.18,0-22.05-13.55-22.05-30.26s9.87-30.26,22.05-30.26,22.05,13.55,22.05,30.26-9.87,30.26-22.05,30.26Z" style="fill:#042f47;"/><path d="M646.28,728.9c-11.95,6.99-7.87,31.61-.91,38.5,6.96,6.89,15.44,2.7,16.95-1.5-3.93,2.7-13.92,4.34-16.8-10.64-2.87-14.98,1.55-22.96,6.43-24.53,7-2.26,15.21,2.51,15.21,2.51,0,0-8.93-11.34-20.88-4.34Z" style="fill:#042f47;"/><path d="M298.37,410.4h8.41l23.97-21.07v-75.08c0-8.5-6.96-15.4-15.55-15.4h-16.83c-8.59,0-15.55,6.89-15.55,15.4v80.76c0,8.5,6.96,15.39,15.55,15.39Z" style="fill:#042f47;"/></g><g id="k"><path d="M1969.84,207.37c-27.27-2.45-42.77,6.14-43.46,20.86-.69,14.72.07,127.61.07,144.78s-4.34,22.09,53.15,28.83c90.96,11.04,356.53,9.82,382.56,8.59,26.03-1.23,39.87-3.68,38.22-16.77-1.65-13.09-15.7-143.15-15.7-143.15-1.87-17.29-6.61-24.54-13.64-25.77-7.02-1.23-38.63-3.27-126.64-6.34-88.01-3.07-247.3-8.59-274.57-11.04ZM2368.6,257.67s13.03,114.04,14.56,125.52c1.53,11.48-11.3,13.63-35.44,14.7-24.14,1.08-270.41,2.15-354.76-7.53-53.32-5.92-49.29-10.22-49.29-25.28s-.71-114.04-.07-126.95c.64-12.91,15.01-20.44,40.3-18.29,25.29,2.15,173,6.99,254.62,9.68,81.62,2.69,110.93,4.48,117.44,5.56,6.51,1.08,10.91,7.44,12.65,22.59Z" style="fill:#042f47;"/><path d="M1881.52,216.57c-11.16,2.45-26.34,8.28-29.75,11.04-3.41,2.76-2.79,114.75-2.17,125.01.62,10.26,6.82,18.85,25.1,27.13,18.28,8.28,29.35,16.86,29.44,9.2,0,0,1.86-150.92,0-164.42-1.86-13.5-11.47-10.43-22.62-7.98Z" style="fill:#042f47;"/><path d="M2413.21,603.28c-.72-3.59,1.64-20.69-3.83-58.26.08-5.57.25-11.36.51-17.4,2.48-56.44-4.54-107.77-4.54-107.77,1.79,16.21-5.22,82.77-7.27,132.31-32.21,23.94-26.61,55.83-26.61,55.83,0,0,16.44-.43,28.69-1.62,4.74,23.82,11.91,29.81,12.63,41.8l-75.2,1.53,28.1,41.31,35.36,1.72c-5.32,10.11-12.41,17.99-21.31,19.14-19.01,2.45-405.34,2.04-447.9-6.54-4.25-.86-8.24-2.18-11.99-3.83-2.22-14.29-5.32-26.93-9.09-37.24l11.99,20.41h70.04l22.93-36.61-108.69-8.87c-1.28-11.7-5.72-45.42-17.54-82.33-14.67-45.81-51.86-52.35-70.55-51.12,10.64.03,40.18,5.32,56.28,43.55,13.28,31.55,18.44,75.19,19.84,89.5-2.76-2.07-5.63-3.2-8.59-3.2h-5.92c-10.37-110.64-54.88-119.67-72.69-118.73,1.34-33.96,3.37-83.64,5.51-130.49l105.1,52.29s29.7,78.53,51.4,110.63c-11.23-28.1-30.44-85.33-39.18-111.69,124.1,6.42,376.93,5.86,424.07-2.62-183.46,9.2-428.64-11.25-428.64-11.25l-87.65-42.24v-132.4l-10.66,127.26-13.66-6.58c1.86-39.57,3.76-75.38,5.32-95.52,4.96-63.8,43.8-72.8,90.08-80.16,46.28-7.36,163.24.04,264.86,2.86,110.32,3.07,175.61,15.13,175.61,15.13,0,0-2.47-34.94-23.97-39.26-48.76-9.82-468.56-27.99-497.48-26.35-28.92,1.64-63.22,32.08-75.61,60.5-12.4,28.42-16.7,352.79-16.7,352.79,0,0,32.34-4.54,41.9-5.13,24.48-1.53,28.1,4.29,28.1,4.29,25.21,18.71,35.59,52.19,39.88,76.69h-19.33c14.21,0,25.72,52.74,25.72,117.79s-11.52,117.79-25.72,117.79h59.67c15.46,0,28.71-29.88,34.32-72.39h341.62c17.35-12.27,61.36-61.35,61.36-61.35-43.84,3.07-330.67-1.08-400.59-2.97-.13-2.51-.29-4.99-.46-7.45,82.21,6.26,421.45,7.35,479.77,7.35,26.65-16.56,26.65-54.6,23.55-97.54-5.72-7.55-10-18.66-12.8-33.53ZM1992.78,658.9l-9.25,18.2-56.24,4.19-8.88-27.91,74.38,5.52ZM2401.49,691.85l-30.39-5.75-12.85-26.59,53.35,1.42c-1.8,9.65-5.16,21.22-10.1,30.92Z" style="fill:#042f47;"/><polygon points="2382.21 491.83 1969.84 486.92 1983.52 530.27 2367.34 534.36 2382.21 491.83" style="fill:#042f47;"/><polygon points="2361.55 549.29 1988.45 545 2000.42 586.71 2349.98 592.44 2361.55 549.29" style="fill:#042f47;"/><polygon points="2345.44 603.89 2004.97 599.39 2017.77 633.75 2335.93 638.25 2345.44 603.89" style="fill:#042f47;"/><path d="M1900.43,524.55c5.79,60.53,4.96,65.95,9.61,72.08,4.65,6.14,69.58,11.35,69.58,11.35,0,0,2.63-74.44-79.19-83.43Z" style="fill:#042f47;"/><polygon points="2026.86 696.94 2327.46 696.94 2310.11 665.65 2052.28 665.65 2026.86 696.94" style="fill:#042f47;"/><path d="M2323.77,748.27c0,13.76-.88,64.95-13.97,84.25-15.18,22.39-25.41,6.13-25.41,6.13,0,0,18.28,6.38,24.79-27.18,4.89-25.21,5.58-45.85,5.62-54.56l-49.11,47.38h-17.35s8.68,70.35,47.1,76.07c38.43,5.73,61.15-8.18,74.79-38.45,13.64-30.27,14.46-100.61,14.46-100.61h-53.71l-7.21,6.95Z" style="fill:#042f47;"/><path d="M2002.59,804.3h-69.94c4.18,20.53,15.41,59.19,41.29,63.38,22.02,3.56,38.44-.48,50.73-11.3,5.27,5.85,11.6,10.07,19.21,11.3,35.43,5.73,56.38-8.18,68.95-38.45,2.8-6.73,5-15.45,6.75-24.93h-116.99Z" style="fill:#042f47;"/><path d="M1818.92,635.59c-9.28,0-17.41,22.5-21.93,56.24,2.4,4.3,4.42,8.83,6.07,13.53,1.84-9.26,4.22-14.85,6.83-14.85,5.84,0,10.58,28.15,10.58,62.88s-4.74,62.88-10.58,62.88c-.66,0-1.31-.38-1.94-1.07v44.74c3.33,7.2,7.05,11.24,10.97,11.24,14.21,0,25.72-52.74,25.72-117.79s-11.52-117.79-25.72-117.79Z" style="fill:#042f47;"/><path d="M2457.83,325.78h-44.61l4.52,123.52,43-6.33c7.18-1.06,12.37-5.83,12.37-11.38v-94.21c0-6.4-6.84-11.6-15.28-11.6Z" style="fill:#042f47;"/><path d="M1788.86,562.28l-80.87,11.61v14.93l98.85-11.71c-9.92-12.17-17.97-14.83-17.97-14.83Z" style="fill:#042f47;"/><path d="M1814.2,591.9l-106.21,11.33v18.34l116.41-6.63c-3.41-12.68-10.2-23.03-10.2-23.03Z" style="fill:#042f47;"/><path d="M1816.24,627.38l-108.25,5.17v16.72l93.52-.91c1.35-6.45,5.94-16.75,14.72-20.98Z" style="fill:#042f47;"/></g><g id="l"><path d="M1061.89,1050.17h48.93c36.81,0,67.5-24.72,76.86-58.21l-205.32-15.54c2.91,41.16,37.21,73.75,79.53,73.75Z" style="fill:#042f47;"/><path d="M1568.68,1050.17h48.93c42.32,0,76.61-32.6,79.52-73.75l-205.32,15.54c9.37,33.49,40.05,58.21,76.86,58.21Z" style="fill:#042f47;"/><path d="M1331.43,432.7v-68.3h-208.67v126.3l176.88-52.77c10.4-3.09,21.09-4.61,31.79-5.23Z" style="fill:#042f47;"/><path d="M1556.75,490.71v-126.3h-208.65v68.3c10.71.62,21.39,2.15,31.77,5.23l176.88,52.77Z" style="fill:#042f47;"/><rect x="1060.89" y="414.73" width="46.59" height="50.47" style="fill:#042f47;"/><path d="M1728.06,661.37h-42.61V21.98h-54.85v235.38h-25.18v-55.71c0-18.98-15.54-34.39-34.72-34.39h-461.9c-19.18,0-34.72,15.4-34.72,34.39v55.71h-25.16V21.98h-54.85v639.39h-42.63c-40.53,0-73.38,32.52-73.38,72.63v125.38h26.05v94.62l435.64,32.97,435.64-32.97v-94.62h26.07v-125.38c0-40.11-32.88-72.63-73.4-72.63ZM1715.84,764.08c11.1,0,20.11,8.92,20.11,19.93v24.99c0,11-9.02,19.93-20.11,19.93h-78.15c-11.1,0-20.11-8.92-20.11-19.93v-24.99c0-11,9.02-19.93,20.11-19.93h78.15ZM1670.05,25.62h6.71v635.74h-6.71V25.62ZM1661.7,25.62h3.35v635.74h-3.35V25.62ZM1530.13,194.17c12.61,0,22.82,10.1,22.82,22.59s-10.21,22.59-22.82,22.59-22.82-10.12-22.82-22.59,10.23-22.59,22.82-22.59ZM1435.43,194.17c12.61,0,22.82,10.1,22.82,22.59s-10.21,22.59-22.82,22.59-22.82-10.12-22.82-22.59,10.23-22.59,22.82-22.59ZM1340.73,194.17c12.61,0,22.82,10.1,22.82,22.59s-10.21,22.59-22.82,22.59-22.82-10.12-22.82-22.59,10.23-22.59,22.82-22.59ZM1246.02,194.17c12.61,0,22.82,10.1,22.82,22.59s-10.21,22.59-22.82,22.59-22.82-10.12-22.82-22.59,10.23-22.59,22.82-22.59ZM1151.32,194.17c12.61,0,22.82,10.1,22.82,22.59s-10.21,22.59-22.82,22.59-22.82-10.12-22.82-22.59,10.23-22.59,22.82-22.59ZM1026.17,409.17c0-9.48,7.76-17.18,17.36-17.18,8.63,0,15.45,6.33,16.82,14.5h47.14v-49.66h-23.14v-46.01c0-13.41,10.99-24.28,24.53-24.28h463.74c13.54,0,24.51,10.88,24.51,24.28v46.01h-25.1v49.66h47.16c1.34-8.17,8.19-14.5,16.8-14.5,9.6,0,17.38,7.7,17.38,17.18v63.8c0,9.5-7.78,17.18-17.38,17.18s-16.99-7.44-17.25-16.69h-46.7v21.79l25.1,7.49v158.97h-11.16v-152.28l-207.83-61.99c-25.03-7.46-51.73-7.46-76.74,0l-207.85,61.99v152.28h-11.16v-158.97l25.1-7.49v-21.79h-46.68c-.28,9.25-7.87,16.69-17.27,16.69s-17.36-7.68-17.36-17.18v-63.8ZM1540.17,536.85v295.06h-400.83v-295.06l169.19-50.47c20.37-6.07,42.09-6.07,62.46,0l169.19,50.47ZM1014.45,25.62h3.35v635.74h-3.35V25.62ZM1002.74,25.63h6.72v635.75h-6.72V25.63ZM963.69,764.08h78.13c11.12,0,20.13,8.92,20.13,19.93v24.99c0,11-9.02,19.93-20.13,19.93h-78.13c-11.12,0-20.13-8.92-20.13-19.93v-24.99c0-11,9.02-19.93,20.13-19.93ZM922.51,708.37c0-5.75,4.7-10.43,10.53-10.43s10.51,4.68,10.51,10.43-4.7,10.4-10.51,10.4-10.53-4.65-10.53-10.4ZM1544,944.53c-33.76,3.11-67.59,5.06-101.38,7.59l-101.38,7.21-.52.04-.5-.04-101.4-7.21c-33.79-2.53-67.61-4.5-101.36-7.62-67.55-5.58-135.08-11.43-202.48-18.96,67.83,1.12,135.55,3.97,203.26,7.06,33.87,1.24,67.68,3.58,101.51,5.41l100.99,5.79,100.97-5.79c33.83-1.82,67.61-4.2,101.49-5.43,67.72-3.09,135.45-5.92,203.28-7.04-67.42,7.55-134.95,13.39-202.48,18.98ZM1544,910.68c-33.76,3.11-67.59,5.08-101.38,7.62l-101.38,7.21-.52.04-.5-.04-101.4-7.21c-33.79-2.53-67.61-4.53-101.36-7.62-67.55-5.6-135.08-11.43-202.48-18.98,67.83,1.14,135.55,3.97,203.26,7.08,33.87,1.22,67.68,3.58,101.51,5.41l100.97,5.77,100.99-5.79c33.83-1.8,67.61-4.18,101.49-5.41,67.72-3.09,135.45-5.94,203.28-7.06-67.42,7.57-134.95,13.41-202.48,18.98ZM1746.47,718.78c-5.81,0-10.52-4.66-10.52-10.42s4.71-10.42,10.52-10.42,10.52,4.66,10.52,10.42-4.71,10.42-10.52,10.42Z" style="fill:#042f47;"/><rect x="1572.03" y="414.73" width="46.59" height="50.47" style="fill:#042f47;"/><path d="M1368.5,504.48c-19.16-5.71-39.38-5.7-58.54,0l-151.44,45.17v268.17h361.44v-268.17l-151.46-45.17ZM1433.99,541.23v260.11h-49.67v-274.92l49.67,14.81ZM1363.7,520.27l.53.16v280.91h-49.67v-281l.21-.06c16.03-4.76,32.95-4.77,48.93,0ZM1294.47,801.34h-49.67v-260.2l49.67-14.82v275.01ZM1175.18,561.9l49.53-14.77v254.21h-49.53v-239.43ZM1503.3,801.34h-49.23v-254.11l49.23,14.68v239.43Z" style="fill:#042f47;"/></g></g></svg>